<svg width="600" height="600" viewBox="0 0 600 600" fill="none" xmlns="http://www.w3.org/2000/svg">
<rect width="600" height="600" fill="white"/>
<path d="M469.178 104.005C469.178 76.3914 446.793 54.0067 419.18 54.006L181.002 54C153.387 53.9993 131 76.386 131.001 104.001L131 338.998C131 354.462 143.536 366.998 159 366.998C171.887 366.998 182.74 358.293 186 346.441V385.683C186 400.769 198.229 412.999 213.315 412.999C228.401 412.999 240.631 400.769 240.631 385.683V384.216C240.886 377.849 246.129 372.765 252.559 372.765C257.774 372.765 262.208 376.108 263.834 380.768C263.849 380.816 264.071 381.509 264.079 381.506C267.795 392.175 277.942 399.831 289.877 399.831C304.714 399.831 316.787 388 317.178 373.257V374.334C317.178 367.811 322.466 362.523 328.989 362.523C334.085 362.523 338.428 365.752 340.083 370.275C343.146 381.816 353.664 390.321 366.169 390.321C381.073 390.321 393.155 378.239 393.155 363.335V359.396C394.009 353.712 398.912 349.355 404.834 349.355C409.93 349.355 414.272 352.583 415.928 357.105C418.99 368.647 429.508 377.153 442.014 377.153C456.918 377.153 469 365.071 469 350.167L469.178 104.005Z" fill="#E9ECEF"/>
<path fill-rule="evenodd" clip-rule="evenodd" d="M376.19 182.513C385.657 170.396 387.864 154.916 383.455 141.312C380.81 133.15 375.782 125.663 368.512 119.983C349.125 104.836 321.129 108.273 305.982 127.66C302.022 132.729 299.332 138.387 297.865 144.249C295.024 138.915 291.045 134.077 285.976 130.117C266.589 114.97 238.593 118.407 223.446 137.795C208.299 157.182 211.736 185.178 231.123 200.325C248.837 214.164 273.735 212.49 289.456 197.312C290.808 196.007 292.091 194.602 293.297 193.098C293.417 192.949 293.536 192.798 293.654 192.647C297.614 187.578 300.304 181.921 301.771 176.059C304.612 181.392 308.591 186.231 313.66 190.191C331.835 204.391 357.577 202.258 373.205 185.961C374.246 184.874 375.243 183.725 376.19 182.513ZM317.316 185.51L364.855 124.663C348.053 111.536 323.79 114.515 310.662 131.317C304.122 139.688 301.58 149.91 302.753 159.685L302.765 159.787L302.779 159.898C304.006 169.667 308.946 178.97 317.316 185.51ZM282.319 134.798C265.517 121.67 241.254 124.649 228.126 141.452C214.999 158.254 217.978 182.517 234.78 195.645L282.319 134.798Z" fill="#495057"/>
<path d="M228.126 141.452C241.254 124.649 265.517 121.67 282.319 134.798L234.78 195.645C217.978 182.517 214.999 158.254 228.126 141.452Z" fill="white"/>
<path d="M310.673 131.129C323.801 114.326 348.064 111.347 364.866 124.475L317.327 185.322C300.525 172.194 297.546 147.931 310.673 131.129Z" fill="white"/>
<path d="M297.446 253.814C295.214 255.191 292.632 256.079 289.837 256.314C280.338 257.112 271.978 250.069 271.164 240.583C270.35 231.096 277.391 222.759 286.89 221.961C289.685 221.726 292.382 222.17 294.816 223.155L294.822 223.157C294.965 223.215 295.108 223.276 295.25 223.338C296.634 223.874 299.507 224.621 302.742 224.349C305.978 224.077 308.682 222.862 309.955 222.102C310.085 222.017 310.215 221.934 310.347 221.853L310.351 221.849C312.583 220.472 315.166 219.585 317.961 219.35C327.46 218.551 335.82 225.595 336.633 235.081C337.447 244.567 330.406 252.905 320.907 253.703C318.112 253.938 315.416 253.494 312.981 252.508L312.976 252.506C312.832 252.448 312.69 252.388 312.548 252.326C311.163 251.789 308.291 251.043 305.055 251.315C301.82 251.586 299.116 252.802 297.842 253.562C297.713 253.647 297.583 253.73 297.451 253.811L297.446 253.814Z" fill="#495057"/>
<path fill-rule="evenodd" clip-rule="evenodd" d="M169 432.5C170.933 432.5 172.5 434.067 172.5 436C172.5 437.671 172.964 439.161 173.893 440.565C174.96 442.177 174.518 444.349 172.906 445.415C171.294 446.482 169.122 446.04 168.055 444.428C166.398 441.923 165.5 439.097 165.5 436C165.5 434.067 167.067 432.5 169 432.5ZM178.703 449.146C179.47 447.372 181.53 446.556 183.305 447.323C186.766 448.82 190.975 450.126 195.859 451.254C197.743 451.689 198.917 453.568 198.482 455.452C198.047 457.335 196.167 458.509 194.284 458.075C189.133 456.885 184.492 455.463 180.526 453.748C178.752 452.981 177.936 450.921 178.703 449.146ZM205.201 456.644C205.474 454.73 207.246 453.4 209.16 453.674C213.405 454.279 217.921 454.796 222.667 455.235C224.592 455.413 226.008 457.118 225.829 459.043C225.651 460.967 223.946 462.383 222.022 462.205C217.183 461.757 212.55 461.228 208.171 460.603C206.257 460.33 204.928 458.558 205.201 456.644ZM232.598 459.545C232.715 457.616 234.373 456.146 236.302 456.262C240.752 456.53 245.337 456.749 250.028 456.928C251.96 457.002 253.466 458.627 253.392 460.559C253.319 462.491 251.693 463.997 249.761 463.923C245.027 463.743 240.39 463.521 235.881 463.249C233.952 463.133 232.482 461.475 232.598 459.545ZM260.205 460.76C260.249 458.827 261.851 457.296 263.784 457.34C268.306 457.442 272.894 457.518 277.523 457.573C279.455 457.596 281.003 459.182 280.98 461.115C280.957 463.048 279.371 464.596 277.439 464.573C272.79 464.517 268.177 464.441 263.625 464.338C261.693 464.294 260.161 462.692 260.205 460.76ZM287.772 461.169C287.782 459.236 289.357 457.677 291.29 457.687C295.876 457.71 300.479 457.722 305.075 457.728C307.008 457.731 308.573 459.3 308.57 461.233C308.567 463.166 306.998 464.731 305.065 464.728C300.464 464.722 295.853 464.71 291.254 464.687C289.321 464.677 287.762 463.102 287.772 461.169ZM315.37 461.237C315.371 459.304 316.939 457.738 318.872 457.739C323.512 457.743 328.122 457.748 332.677 457.763C334.61 457.77 336.172 459.342 336.165 461.275C336.159 463.208 334.587 464.769 332.654 464.763C328.108 464.748 323.505 464.743 318.867 464.739C316.934 464.738 315.368 463.17 315.37 461.237ZM342.947 461.314C342.966 459.381 344.548 457.829 346.481 457.847C351.185 457.892 355.802 457.956 360.301 458.049C362.234 458.089 363.768 459.688 363.728 461.62C363.689 463.553 362.09 465.087 360.157 465.047C355.689 464.955 351.099 464.892 346.414 464.847C344.481 464.828 342.929 463.246 342.947 461.314ZM370.567 461.813C370.641 459.881 372.268 458.376 374.199 458.45C379.025 458.637 383.662 458.873 388.064 459.173C389.993 459.304 391.45 460.974 391.318 462.902C391.187 464.831 389.517 466.288 387.589 466.157C383.269 465.862 378.702 465.629 373.929 465.445C371.997 465.371 370.492 463.744 370.567 461.813ZM398.111 463.505C398.343 461.586 400.086 460.219 402.005 460.451C407.178 461.075 411.877 461.851 415.969 462.822C417.849 463.268 419.012 465.155 418.566 467.036C418.12 468.916 416.233 470.079 414.353 469.633C410.596 468.742 406.173 468.005 401.166 467.4C399.247 467.168 397.879 465.425 398.111 463.505ZM425.06 469.222C426.264 467.71 428.466 467.46 429.978 468.665C432.651 470.794 434.5 473.652 434.5 477.25C434.5 480.743 432.755 483.59 430.222 485.785C428.761 487.05 426.551 486.892 425.285 485.431C424.019 483.97 424.177 481.76 425.638 480.494C427.107 479.222 427.5 478.163 427.5 477.25C427.5 476.344 427.116 475.334 425.617 474.14C424.105 472.936 423.856 470.734 425.06 469.222ZM419.07 487.881C419.609 489.737 418.542 491.679 416.685 492.218C412.672 493.384 408.053 494.379 402.958 495.236C401.052 495.557 399.247 494.272 398.926 492.365C398.605 490.459 399.89 488.654 401.796 488.333C406.718 487.505 411.057 486.564 414.732 485.496C416.589 484.957 418.531 486.025 419.07 487.881ZM392.263 493.26C392.478 495.181 391.096 496.912 389.175 497.128C384.836 497.613 380.263 498.041 375.5 498.42C373.573 498.574 371.887 497.136 371.733 495.209C371.58 493.282 373.017 491.596 374.944 491.442C379.648 491.068 384.145 490.647 388.396 490.171C390.317 489.956 392.048 491.339 392.263 493.26ZM365.055 495.662C365.169 497.592 363.697 499.248 361.767 499.362C357.303 499.625 352.718 499.859 348.043 500.07C346.112 500.157 344.476 498.662 344.389 496.731C344.302 494.8 345.796 493.164 347.727 493.077C352.376 492.867 356.928 492.635 361.355 492.374C363.285 492.261 364.941 493.733 365.055 495.662ZM337.752 496.996C337.822 498.928 336.312 500.551 334.38 500.62C329.872 500.783 325.306 500.931 320.708 501.071C318.776 501.13 317.162 499.611 317.104 497.679C317.045 495.747 318.563 494.133 320.496 494.074C325.084 493.935 329.636 493.787 334.128 493.625C336.06 493.555 337.682 495.065 337.752 496.996ZM310.439 497.87C310.492 499.802 308.969 501.412 307.037 501.465C304.366 501.539 301.69 501.611 299.015 501.684C297.132 501.735 295.25 501.786 293.372 501.838C291.439 501.891 289.83 500.367 289.777 498.435C289.724 496.503 291.248 494.894 293.18 494.841C295.062 494.789 296.946 494.738 298.828 494.687C301.501 494.614 304.173 494.541 306.844 494.468C308.776 494.414 310.386 495.937 310.439 497.87ZM283.112 498.623C283.17 500.555 281.65 502.168 279.718 502.225C275.129 502.362 270.576 502.506 266.082 502.662C264.15 502.73 262.53 501.219 262.462 499.287C262.395 497.355 263.906 495.734 265.838 495.667C270.347 495.509 274.912 495.365 279.51 495.228C281.442 495.171 283.055 496.69 283.112 498.623ZM255.823 499.543C255.907 501.474 254.41 503.107 252.478 503.191C247.831 503.393 243.28 503.616 238.853 503.867C236.923 503.976 235.27 502.5 235.161 500.57C235.052 498.64 236.528 496.987 238.458 496.878C242.92 496.625 247.502 496.401 252.175 496.198C254.106 496.114 255.739 497.611 255.823 499.543ZM228.479 501.005C228.626 502.933 227.183 504.615 225.256 504.762C220.549 505.122 216.047 505.527 211.79 505.985C209.869 506.192 208.143 504.802 207.936 502.88C207.729 500.958 209.119 499.232 211.041 499.025C215.382 498.558 219.957 498.147 224.722 497.783C226.649 497.635 228.331 499.078 228.479 501.005ZM201.276 503.74C201.585 505.648 200.289 507.446 198.381 507.755C193.454 508.553 189.105 509.461 185.414 510.494C183.553 511.015 181.621 509.928 181.1 508.067C180.579 506.205 181.666 504.274 183.528 503.753C187.547 502.628 192.167 501.67 197.261 500.845C199.17 500.536 200.967 501.832 201.276 503.74ZM174.841 510.438C176.078 511.923 175.876 514.13 174.39 515.367C172.87 516.632 172.5 517.657 172.5 518.5C172.5 519.389 172.891 520.479 174.364 521.82C175.794 523.122 175.897 525.335 174.596 526.765C173.295 528.194 171.081 528.298 169.652 526.996C167.199 524.764 165.5 521.924 165.5 518.5C165.5 514.973 167.326 512.138 169.912 509.986C171.398 508.75 173.605 508.952 174.841 510.438ZM180.772 529.445C181.37 527.607 183.345 526.601 185.183 527.199C188.828 528.383 193.137 529.456 198.033 530.416C199.929 530.788 201.165 532.628 200.793 534.525C200.421 536.421 198.582 537.657 196.685 537.285C191.602 536.288 187.006 535.152 183.019 533.856C181.181 533.258 180.175 531.284 180.772 529.445ZM207.372 535.572C207.628 533.656 209.389 532.311 211.305 532.568C215.55 533.137 220.048 533.644 224.76 534.093C226.685 534.276 228.096 535.985 227.912 537.909C227.729 539.834 226.02 541.245 224.096 541.061C219.309 540.605 214.721 540.088 210.376 539.506C208.46 539.249 207.115 537.488 207.372 535.572ZM234.548 538.443C234.68 536.514 236.35 535.057 238.279 535.189C242.683 535.49 247.218 535.749 251.856 535.97C253.787 536.062 255.278 537.701 255.186 539.632C255.094 541.563 253.454 543.054 251.523 542.962C246.842 542.739 242.259 542.477 237.802 542.173C235.874 542.041 234.417 540.371 234.548 538.443ZM261.839 539.891C261.9 537.958 263.515 536.441 265.447 536.501C269.925 536.64 274.471 536.749 279.061 536.828C280.994 536.862 282.533 538.456 282.5 540.388C282.466 542.321 280.873 543.861 278.94 543.827C274.319 543.747 269.742 543.638 265.229 543.498C263.297 543.438 261.779 541.823 261.839 539.891ZM289.167 540.462C289.178 538.529 290.753 536.971 292.686 536.981C294.953 536.994 297.225 537 299.5 537C301.433 537 303 538.567 303 540.5C303 542.433 301.433 544 299.5 544C297.212 544 294.928 543.994 292.648 543.981C290.715 543.971 289.157 542.395 289.167 540.462Z" fill="#E9ECEF"/>
<path d="M190.613 270.766C194.298 271.756 198.552 269.327 202.577 264.54C203.597 270.683 206.071 274.92 209.835 275.932C217.604 278.02 227.895 264.88 232.814 246.469C237.732 228.057 235.391 211.437 227.542 209.327C223.858 208.337 219.603 210.766 215.578 215.553C214.558 209.41 212.084 205.173 208.4 204.183C204.716 203.193 200.462 205.622 196.436 210.409C195.416 204.266 192.943 200.029 189.259 199.039C181.41 196.929 171.097 210.149 166.178 228.56C161.26 246.972 163.602 263.592 171.45 265.701C175.135 266.691 179.389 264.262 183.415 259.475C184.456 265.539 186.929 269.776 190.613 270.766Z" fill="#CED4DA"/>
<path d="M410.191 260.506C413.876 259.522 416.346 255.291 417.439 249.132C421.394 253.942 425.654 256.375 429.42 255.369C437.192 253.293 439.535 236.768 434.589 218.364C429.642 199.96 419.304 186.737 411.452 188.835C407.767 189.819 405.297 194.05 404.204 200.208C400.249 195.398 395.989 192.966 392.303 193.95C388.617 194.935 386.148 199.166 385.055 205.324C381.1 200.514 376.839 198.081 373.154 199.066C365.302 201.164 362.98 217.768 367.926 236.172C372.873 254.576 383.211 267.799 391.063 265.701C394.748 264.717 397.218 260.486 398.311 254.327C402.244 259.058 406.505 261.491 410.191 260.506Z" fill="#CED4DA"/>
</svg>
