<svg width="600" height="600" viewBox="0 0 600 600" fill="none" xmlns="http://www.w3.org/2000/svg">
<g clip-path="url(#clip0_1244_810)">
<path d="M460.803 433.113C469.565 428.513 481.778 424.145 493.102 424.112C499.212 424.094 505.192 425.339 510.221 428.623C515.286 431.931 519.204 437.189 521.356 444.843C523.631 452.938 520.421 462.415 514.6 471.354C508.726 480.377 499.931 489.27 490.235 496.397C480.55 503.515 469.818 508.981 460.018 510.993C450.226 513.003 440.935 511.618 434.894 504.37L434.745 504.191L434.641 503.982L345.21 324.675L344.371 322.991L346 322.05L393.81 294.448L395.701 293.356L396.623 295.335L460.803 433.113Z" fill="#9966FF" stroke="#392660" stroke-width="4"/>
<path d="M494.806 442.47C476.472 442.904 461.091 455.08 458.09 473.498" stroke="#392660" stroke-width="4" stroke-linecap="round"/>
<path d="M444.857 459.855C444.592 460.937 443.515 461.604 442.452 461.345C441.388 461.085 440.74 459.997 441.005 458.915L444.857 459.855ZM484.657 426.885C478.978 427.595 470.278 430.477 462.346 435.926C454.433 441.362 447.453 449.233 444.857 459.855L441.005 458.915C443.908 447.037 451.678 438.407 460.141 432.594C468.584 426.793 477.883 423.675 484.204 422.885L484.657 426.885Z" fill="#392660"/>
<path fill-rule="evenodd" clip-rule="evenodd" d="M432.852 377.847L383.804 397.574L347 323.783L394.809 296.18L432.852 377.847Z" fill="#392660"/>
<path d="M138.614 332.083C79.5356 328.583 46.5355 364.083 82.5356 426.583" stroke="#392660" stroke-width="30"/>
<path d="M425.536 278.584C474.538 280.895 546.535 273.583 521.036 197.583" stroke="#392660" stroke-width="30"/>
<path d="M255.062 481.006C256.14 483.204 256.874 484.705 257.291 485.852C257.716 487.023 257.644 487.402 257.606 487.511C257.58 487.589 257.399 487.957 256.207 488.707C255.067 489.424 253.408 490.254 251.013 491.448C234.768 499.547 230.289 514.098 229.084 524.415L229.067 524.561C228.875 526.201 228.704 527.662 228.757 528.875C228.816 530.229 229.158 531.499 230.15 532.614C231.169 533.759 232.462 534.228 233.843 534.436C235.11 534.626 236.688 534.626 238.5 534.625L238.644 534.625L301.684 534.625L301.88 534.625C308.377 534.626 313.511 534.626 317.414 533.97C321.453 533.292 324.557 531.852 326.604 528.692C328.631 525.56 328.743 522.247 327.782 518.424C326.86 514.759 324.874 510.328 322.374 504.752L322.291 504.568C320.862 501.381 319.41 498.227 317.97 495.1C311.536 481.128 305.344 467.682 302.57 454.152C299.216 437.788 300.912 421.44 313.641 404.274C322.042 392.946 325.272 383.185 324.614 375.353C323.946 367.402 319.294 361.774 312.785 358.881C299.961 353.181 280.119 358.034 267.915 374.912C256.898 390.147 248.61 406.366 245.627 423.97C242.638 441.612 245.002 460.503 255.062 481.006Z" fill="#9966FF" stroke="#392660" stroke-width="4"/>
<path fill-rule="evenodd" clip-rule="evenodd" d="M299.723 431.391L247.629 452.343C242.803 423.974 252.932 399.046 269.536 376.083C293.036 343.583 345.035 358.583 312.035 403.083C304.901 412.703 301.127 422.105 299.723 431.391Z" fill="#392660"/>
<path d="M87.6619 134.408C87.6194 134.419 87.577 134.431 87.5347 134.442C85.8221 134.901 84.3466 135.296 83.2075 135.771C81.9867 136.281 80.8757 136.99 80.155 138.239C79.4342 139.487 79.3755 140.804 79.5446 142.116C79.7023 143.34 80.0978 144.815 80.5568 146.528C80.5681 146.57 80.5795 146.613 80.5908 146.655L150.343 406.973L150.377 407.1C150.836 408.813 151.231 410.289 151.707 411.428C152.216 412.648 152.925 413.76 154.174 414.48C155.422 415.201 156.739 415.26 158.051 415.091C159.275 414.933 160.751 414.537 162.463 414.078L162.59 414.044L189.037 406.958C190.913 406.455 192.127 406.134 193.053 406.015C193.921 405.903 194.232 406.015 194.419 406.122C194.605 406.23 194.857 406.444 195.195 407.252C195.554 408.113 195.883 409.325 196.386 411.201L203.488 437.707L203.525 437.843C204.04 439.766 204.48 441.409 205.01 442.658C205.575 443.99 206.37 445.197 207.783 445.9C209.196 446.603 210.639 446.509 212.042 446.157C213.358 445.826 214.934 445.186 216.778 444.437L216.909 444.384L469.589 341.804L469.703 341.758C471.164 341.164 472.433 340.649 473.408 340.101C474.458 339.51 475.394 338.762 475.978 337.588C476.561 336.415 476.594 335.217 476.432 334.024C476.281 332.915 475.927 331.592 475.518 330.067L475.487 329.95L403.21 60.2096L403.176 60.0826C402.717 58.37 402.322 56.8943 401.846 55.7552C401.337 54.5345 400.628 53.4235 399.379 52.7027C398.131 51.9819 396.814 51.9232 395.502 52.0923C394.278 52.25 392.802 52.6455 391.09 53.1045L390.963 53.1386L87.6619 134.408Z" fill="#9966FF" stroke="#392660" stroke-width="4"/>
<g filter="url(#filter0_f_1244_810)">
<ellipse cx="375.059" cy="209.705" rx="41.1834" ry="41.1834" transform="rotate(-48.7102 375.059 209.705)" fill="url(#paint0_radial_1244_810)"/>
</g>
<g filter="url(#filter1_f_1244_810)">
<ellipse cx="177.044" cy="262.763" rx="41.1834" ry="41.1834" transform="rotate(-48.7102 177.044 262.763)" fill="url(#paint1_radial_1244_810)"/>
</g>
<circle cx="228.508" cy="215.725" r="48" transform="rotate(-15 228.508 215.725)" fill="white" stroke="#392660" stroke-width="4"/>
<path d="M241.449 167.429C247.791 169.128 253.737 172.06 258.946 176.057C264.155 180.054 268.526 185.039 271.809 190.725C275.092 196.411 277.223 202.689 278.08 209.199C278.937 215.709 278.503 222.324 276.804 228.666C275.105 235.008 272.173 240.954 268.175 246.163C264.178 251.372 259.194 255.743 253.508 259.026C247.821 262.309 241.544 264.44 235.034 265.297C228.524 266.154 221.909 265.721 215.567 264.021L228.508 215.725L241.449 167.429Z" fill="#392660"/>
<circle cx="309.645" cy="193.984" r="48" transform="rotate(-15 309.645 193.984)" fill="white" stroke="#392660" stroke-width="4"/>
<path d="M322.586 145.688C328.929 147.387 334.874 150.319 340.084 154.317C345.293 158.314 349.664 163.298 352.947 168.984C356.23 174.671 358.361 180.948 359.218 187.458C360.075 193.968 359.641 200.583 357.942 206.925C356.242 213.268 353.31 219.213 349.313 224.422C345.316 229.632 340.332 234.002 334.645 237.286C328.959 240.569 322.682 242.699 316.172 243.556C309.662 244.414 303.047 243.98 296.704 242.281L309.645 193.984L322.586 145.688Z" fill="#392660"/>
<path d="M297.362 506.679C297.968 507.603 299.207 507.861 300.131 507.256C301.055 506.65 301.314 505.411 300.708 504.487L297.362 506.679ZM252.806 492.838C254.951 491.471 258.188 490.68 262.175 490.596C266.125 490.513 270.629 491.129 275.146 492.392C284.251 494.94 292.981 499.991 297.362 506.679L300.708 504.487C295.59 496.674 285.819 491.225 276.224 488.54C271.39 487.188 266.492 486.504 262.091 486.597C257.727 486.688 253.663 487.548 250.656 489.465L252.806 492.838Z" fill="#392660"/>
<path d="M178.673 275.989C191.019 293.731 231.842 324.894 296.366 307.605C360.89 290.316 383.082 237.782 386.113 213.676" stroke="#392660" stroke-width="4" stroke-linecap="round"/>
<path d="M300.068 330.6C307.981 329.517 326.506 323.701 337.307 309.1" stroke="#392660" stroke-width="4" stroke-linecap="round"/>
<mask id="path-19-outside-1_1244_810" maskUnits="userSpaceOnUse" x="31.1107" y="370.472" width="143.804" height="149.808" fill="black">
<rect fill="white" x="31.1107" y="370.472" width="143.804" height="149.808"/>
<path fill-rule="evenodd" clip-rule="evenodd" d="M144.898 451.419C138.12 449.818 131.366 448.222 128.535 444.583C152.143 416.834 122.917 391.828 95.3208 399.995C95.491 399.362 95.4274 398.562 95.1159 397.473C92.7356 389.151 75.4823 398.811 69.6028 404.655C62.5473 411.668 54.9378 423.784 61.7112 426.259C62.1015 426.401 62.4717 426.504 62.824 426.569C47.1203 455.914 74.8192 492.528 94.4781 480.201C97.8903 478.062 97.5116 474.293 95.6481 470.53C100.535 475.34 106.765 479.026 113.184 475.457C116.576 473.571 117.181 470.591 116.397 467.287C130.272 479.485 157.072 485.568 162.535 465.083C164.918 456.148 154.882 453.777 144.898 451.419Z"/>
</mask>
<path fill-rule="evenodd" clip-rule="evenodd" d="M144.898 451.419C138.12 449.818 131.366 448.222 128.535 444.583C152.143 416.834 122.917 391.828 95.3208 399.995C95.491 399.362 95.4274 398.562 95.1159 397.473C92.7356 389.151 75.4823 398.811 69.6028 404.655C62.5473 411.668 54.9378 423.784 61.7112 426.259C62.1015 426.401 62.4717 426.504 62.824 426.569C47.1203 455.914 74.8192 492.528 94.4781 480.201C97.8903 478.062 97.5116 474.293 95.6481 470.53C100.535 475.34 106.765 479.026 113.184 475.457C116.576 473.571 117.181 470.591 116.397 467.287C130.272 479.485 157.072 485.568 162.535 465.083C164.918 456.148 154.882 453.777 144.898 451.419Z" fill="white"/>
<path d="M128.535 444.583L125.489 441.991C124.26 443.435 124.214 445.542 125.378 447.038L128.535 444.583ZM144.898 451.419L145.817 447.526L144.898 451.419ZM95.3208 399.995L91.4582 398.955C91.0819 400.354 91.491 401.847 92.5278 402.858C93.5646 403.869 95.0671 404.241 96.4559 403.83L95.3208 399.995ZM95.1159 397.473L91.2701 398.573L91.2701 398.573L95.1159 397.473ZM69.6028 404.655L72.4226 407.492L69.6028 404.655ZM61.7112 426.259L60.3388 430.016L60.3388 430.016L61.7112 426.259ZM62.824 426.569L66.3508 428.457C66.9526 427.332 66.982 425.988 66.43 424.838C65.878 423.689 64.8108 422.871 63.5569 422.637L62.824 426.569ZM95.6481 470.53L98.4538 467.679C97.0619 466.309 94.8845 466.145 93.3026 467.29C91.7208 468.435 91.197 470.555 92.0635 472.305L95.6481 470.53ZM113.184 475.457L111.24 471.961L111.24 471.961L113.184 475.457ZM116.397 467.287L119.038 464.282C117.73 463.133 115.829 462.961 114.336 463.858C112.844 464.756 112.103 466.515 112.505 468.21L116.397 467.287ZM162.535 465.083L166.4 466.114L162.535 465.083ZM125.378 447.038C127.505 449.774 130.789 451.401 133.865 452.523C137.02 453.674 140.649 454.525 143.978 455.312L145.817 447.526C142.369 446.711 139.232 445.965 136.607 445.007C133.904 444.021 132.396 443.031 131.693 442.127L125.378 447.038ZM96.4559 403.83C108.902 400.147 121.465 404.038 128.152 411.492C131.447 415.164 133.308 419.669 133.187 424.664C133.065 429.675 130.934 435.59 125.489 441.991L131.582 447.175C137.94 439.701 141.009 432.085 141.185 424.858C141.361 417.615 138.617 411.176 134.107 406.149C125.184 396.204 109.336 391.676 94.1858 396.159L96.4559 403.83ZM91.2701 398.573C91.3783 398.951 91.406 399.153 91.412 399.227C91.4172 399.292 91.399 399.175 91.4582 398.955L99.1835 401.034C99.6332 399.362 99.3477 397.722 98.9616 396.373L91.2701 398.573ZM72.4226 407.492C74.9501 404.98 80.2633 401.393 85.1372 399.473C87.613 398.498 89.4881 398.152 90.6141 398.248C91.1195 398.291 91.2484 398.405 91.2136 398.379C91.1323 398.32 91.1895 398.291 91.2701 398.573L98.9616 396.373C98.4471 394.574 97.4445 393.027 95.9411 391.925C94.4842 390.858 92.8287 390.407 91.29 390.277C88.3279 390.025 85.0758 390.899 82.2058 392.03C76.3882 394.321 70.135 398.486 66.7829 401.818L72.4226 407.492ZM63.0837 422.501C62.8675 422.422 62.9365 422.398 63.0426 422.543C63.1385 422.674 63.099 422.719 63.0816 422.503C63.0351 421.928 63.2391 420.714 64.1055 418.829C65.7858 415.174 69.1195 410.775 72.4226 407.492L66.7829 401.818C63.0305 405.548 59.0318 410.713 56.8368 415.488C55.7656 417.818 54.8963 420.536 55.1076 423.148C55.219 424.525 55.6412 425.978 56.5899 427.272C57.5487 428.58 58.8616 429.476 60.3388 430.016L63.0837 422.501ZM63.5569 422.637C63.4463 422.617 63.2903 422.577 63.0836 422.501L60.3388 430.016C60.9127 430.225 61.497 430.391 62.0912 430.502L63.5569 422.637ZM92.3531 476.812C88.7108 479.096 84.6936 479.196 80.5846 477.463C76.3667 475.684 72.1185 471.963 68.7321 466.814C61.9449 456.494 59.3281 441.579 66.3508 428.457L59.2973 424.682C50.6163 440.904 53.9971 458.968 62.0481 471.21C66.0807 477.342 71.4619 482.297 77.4758 484.834C83.5986 487.416 90.416 487.47 96.6031 483.59L92.3531 476.812ZM92.0635 472.305C92.8504 473.894 93.0892 475.047 93.0484 475.739C93.0308 476.039 92.9647 476.203 92.9059 476.304C92.8496 476.4 92.7157 476.585 92.3531 476.812L96.6031 483.59C99.4426 481.81 100.862 479.136 101.035 476.21C101.192 473.542 100.309 470.929 99.2328 468.755L92.0635 472.305ZM111.24 471.961C109.182 473.105 107.246 473.114 105.205 472.375C103.006 471.578 100.71 469.899 98.4538 467.679L92.8425 473.381C95.4738 475.97 98.7357 478.54 102.479 479.896C106.379 481.31 110.767 481.377 115.128 478.952L111.24 471.961ZM112.505 468.21C112.791 469.415 112.724 470.165 112.572 470.607C112.455 470.95 112.185 471.435 111.24 471.961L115.128 478.952C117.575 477.592 119.303 475.645 120.141 473.2C120.944 470.855 120.787 468.463 120.289 466.363L112.505 468.21ZM158.67 464.052C157.546 468.268 155.435 470.827 152.899 472.364C150.277 473.954 146.842 474.66 142.833 474.447C134.727 474.016 125.391 469.868 119.038 464.282L113.756 470.291C121.279 476.904 132.28 481.897 142.408 482.436C147.517 482.707 152.673 481.856 157.046 479.206C161.505 476.503 164.793 472.141 166.4 466.114L158.67 464.052ZM143.978 455.312C149.176 456.54 153.513 457.603 156.349 459.246C157.687 460.021 158.325 460.73 158.615 461.307C158.859 461.794 159.062 462.584 158.67 464.052L166.4 466.114C167.2 463.114 167.041 460.258 165.762 457.714C164.529 455.259 162.48 453.553 160.36 452.324C156.276 449.958 150.603 448.657 145.817 447.526L143.978 455.312Z" fill="#392660" mask="url(#path-19-outside-1_1244_810)"/>
<path d="M125 424L122 429.5" stroke="#392660" stroke-width="4" stroke-linecap="round"/>
<path d="M82 411C79.5 412.667 73.6 417.3 70 422.5" stroke="#392660" stroke-width="4" stroke-linecap="round" stroke-linejoin="round"/>
<path d="M101.035 477.082C98.01 475.522 91.5349 470.583 88.035 459.083" stroke="#392660" stroke-width="4" stroke-linecap="round" stroke-linejoin="round"/>
<path d="M132.866 445.083C129.841 443.522 123.366 438.583 119.866 427.083" stroke="#392660" stroke-width="4" stroke-linecap="round" stroke-linejoin="round"/>
<path d="M127.949 476.877C124.66 476.001 117.276 472.565 111.392 462.083" stroke="#392660" stroke-width="4" stroke-linecap="round" stroke-linejoin="round"/>
<mask id="path-26-outside-2_1244_810" maskUnits="userSpaceOnUse" x="442.175" y="86.33" width="122.594" height="143.999" fill="black">
<rect fill="white" x="442.175" y="86.33" width="122.594" height="143.999"/>
<path fill-rule="evenodd" clip-rule="evenodd" d="M470.863 106.973C454.67 112.665 462.802 131.126 476.67 158.098C446.732 172.972 472.557 207.488 503.528 207.496C502.3 208.006 501.762 208.925 501.8 211.04C501.956 219.694 521.115 214.806 528.302 210.675C536.926 205.717 547.401 195.97 541.494 191.834C540.882 191.405 540.3 191.118 539.738 190.953C558.928 167.452 544.688 128.627 523.307 133.775C518.97 134.82 517.461 138.283 517.281 142.013C515.639 136.211 512.161 130.817 504.064 132.322C496.246 133.774 494.24 140.496 494.945 146.944C490.938 128.36 482.774 102.786 470.863 106.973Z"/>
</mask>
<path fill-rule="evenodd" clip-rule="evenodd" d="M470.863 106.973C454.67 112.665 462.802 131.126 476.67 158.098C446.732 172.972 472.557 207.488 503.528 207.496C502.3 208.006 501.762 208.925 501.8 211.04C501.956 219.694 521.115 214.806 528.302 210.675C536.926 205.717 547.401 195.97 541.494 191.834C540.882 191.405 540.3 191.118 539.738 190.953C558.928 167.452 544.688 128.627 523.307 133.775C518.97 134.82 517.461 138.283 517.281 142.013C515.639 136.211 512.161 130.817 504.064 132.322C496.246 133.774 494.24 140.496 494.945 146.944C490.938 128.36 482.774 102.786 470.863 106.973Z" fill="white"/>
<path d="M476.67 158.098L478.45 161.68C479.408 161.204 480.136 160.363 480.47 159.346C480.804 158.33 480.717 157.221 480.227 156.269L476.67 158.098ZM470.863 106.973L469.537 103.199L469.537 103.199L470.863 106.973ZM503.528 207.496L505.062 211.19C506.824 210.459 507.824 208.585 507.451 206.715C507.078 204.844 505.437 203.497 503.529 203.496L503.528 207.496ZM501.8 211.04L505.799 210.968L505.799 210.968L501.8 211.04ZM528.302 210.675L526.309 207.207L528.302 210.675ZM541.494 191.834L539.2 195.11L539.2 195.11L541.494 191.834ZM539.738 190.953L536.64 188.423C535.792 189.46 535.521 190.853 535.916 192.133C536.312 193.413 537.322 194.41 538.607 194.789L539.738 190.953ZM517.281 142.013L513.432 143.103C513.966 144.989 515.788 146.21 517.735 145.987C519.683 145.765 521.182 144.164 521.276 142.206L517.281 142.013ZM504.064 132.322L503.333 128.389L503.333 128.389L504.064 132.322ZM494.945 146.944L491.035 147.787C491.483 149.868 493.483 151.233 495.585 150.892C497.686 150.552 499.152 148.625 498.921 146.509L494.945 146.944ZM480.227 156.269C473.222 142.645 468.027 131.812 466.416 123.77C465.621 119.802 465.823 117.061 466.651 115.179C467.405 113.463 468.931 111.892 472.19 110.746L469.537 103.199C464.699 104.9 461.169 107.771 459.327 111.96C457.558 115.983 457.624 120.611 458.572 125.341C460.446 134.696 466.25 146.58 473.113 159.927L480.227 156.269ZM503.529 203.496C489.405 203.492 476.492 195.556 470.646 186.245C467.755 181.64 466.788 177.038 467.767 173.042C468.725 169.13 471.741 165.014 478.45 161.68L474.89 154.516C466.63 158.62 461.648 164.395 459.996 171.139C458.365 177.798 460.177 184.615 463.871 190.499C471.195 202.166 486.68 211.492 503.527 211.496L503.529 203.496ZM505.799 210.968C505.793 210.603 505.814 210.401 505.828 210.314C505.842 210.232 505.839 210.313 505.756 210.477C505.663 210.66 505.519 210.849 505.338 211.004C505.172 211.147 505.05 211.195 505.062 211.19L501.994 203.802C500.712 204.335 499.431 205.263 498.623 206.855C497.906 208.266 497.777 209.792 497.801 211.112L505.799 210.968ZM526.309 207.207C523.219 208.983 517.161 211.08 511.957 211.678C509.314 211.982 507.413 211.833 506.349 211.451C505.872 211.279 505.777 211.136 505.804 211.17C505.867 211.248 505.805 211.261 505.799 210.968L497.801 211.112C497.834 212.983 498.404 214.736 499.573 216.187C500.706 217.594 502.189 218.457 503.642 218.979C506.44 219.985 509.807 219.978 512.872 219.626C519.083 218.911 526.198 216.498 530.296 214.142L526.309 207.207ZM539.2 195.11C539.388 195.242 539.315 195.248 539.25 195.081C539.191 194.93 539.241 194.896 539.202 195.11C539.099 195.677 538.589 196.797 537.266 198.395C534.701 201.494 530.346 204.886 526.309 207.207L530.296 214.142C534.883 211.505 540.077 207.545 543.429 203.497C545.064 201.521 546.604 199.119 547.073 196.541C547.32 195.181 547.287 193.669 546.704 192.174C546.114 190.663 545.076 189.459 543.788 188.557L539.2 195.11ZM538.607 194.789C538.681 194.811 538.875 194.883 539.2 195.11L543.788 188.557C542.889 187.927 541.918 187.425 540.869 187.116L538.607 194.789ZM524.244 137.664C528.219 136.707 531.864 137.732 535.071 140.337C538.367 143.014 541.183 147.383 542.926 152.838C546.423 163.782 545.235 177.897 536.64 188.423L542.836 193.483C553.431 180.508 554.718 163.46 550.547 150.403C548.456 143.858 544.903 138.017 540.115 134.128C535.239 130.167 529.086 128.27 522.371 129.886L524.244 137.664ZM521.276 142.206C521.346 140.77 521.661 139.731 522.098 139.052C522.467 138.479 523.047 137.952 524.244 137.664L522.371 129.886C519.23 130.642 516.887 132.369 515.372 134.721C513.925 136.968 513.397 139.526 513.286 141.82L521.276 142.206ZM504.795 136.255C507.755 135.705 509.348 136.435 510.411 137.396C511.684 138.545 512.695 140.498 513.432 143.103L521.13 140.924C520.225 137.727 518.677 134.082 515.775 131.46C512.664 128.649 508.471 127.435 503.333 128.389L504.795 136.255ZM498.921 146.509C498.621 143.764 498.951 141.343 499.855 139.608C500.664 138.056 502.067 136.761 504.795 136.255L503.333 128.389C498.242 129.335 494.733 132.128 492.761 135.911C490.884 139.513 490.564 143.676 490.969 147.378L498.921 146.509ZM472.19 110.746C473.507 110.283 474.801 110.465 476.517 111.903C478.391 113.475 480.356 116.277 482.279 120.185C486.09 127.932 489.051 138.588 491.035 147.787L498.855 146.101C496.832 136.717 493.708 125.293 489.457 116.654C487.349 112.368 484.79 108.401 481.658 105.774C478.367 103.014 474.175 101.569 469.537 103.199L472.19 110.746Z" fill="#392660" mask="url(#path-26-outside-2_1244_810)"/>
<path d="M472.208 157.761C478.492 154.739 493.886 149.161 496.711 160.893C499.555 169.888 490.969 176.499 484.997 179.876" stroke="#392660" stroke-width="4" stroke-linecap="round" stroke-linejoin="round"/>
<path d="M497.002 161.966C494.559 154.419 489.687 141.907 496.796 133.228" stroke="#392660" stroke-width="4" stroke-linecap="round" stroke-linejoin="round"/>
<path d="M516.632 136.01C511.342 150.426 526.24 169.28 534.609 157.252" stroke="#392660" stroke-width="4" stroke-linecap="round" stroke-linejoin="round"/>
<path d="M521.069 160.552C518.451 173.073 498.853 169.656 494.986 156.193" stroke="#392660" stroke-width="4" stroke-linecap="round" stroke-linejoin="round"/>
<path d="M510 205C513.5 205.5 523.1 204 533.5 194" stroke="#392660" stroke-width="4" stroke-linecap="round" stroke-linejoin="round"/>
</g>
<defs>
<filter id="filter0_f_1244_810" x="325.875" y="160.521" width="98.3679" height="98.3677" filterUnits="userSpaceOnUse" color-interpolation-filters="sRGB">
<feFlood flood-opacity="0" result="BackgroundImageFix"/>
<feBlend mode="normal" in="SourceGraphic" in2="BackgroundImageFix" result="shape"/>
<feGaussianBlur stdDeviation="4" result="effect1_foregroundBlur_1244_810"/>
</filter>
<filter id="filter1_f_1244_810" x="127.86" y="213.579" width="98.3679" height="98.3677" filterUnits="userSpaceOnUse" color-interpolation-filters="sRGB">
<feFlood flood-opacity="0" result="BackgroundImageFix"/>
<feBlend mode="normal" in="SourceGraphic" in2="BackgroundImageFix" result="shape"/>
<feGaussianBlur stdDeviation="4" result="effect1_foregroundBlur_1244_810"/>
</filter>
<radialGradient id="paint0_radial_1244_810" cx="0" cy="0" r="1" gradientUnits="userSpaceOnUse" gradientTransform="translate(365.175 172.914) rotate(68.7965) scale(79.9052 86.5046)">
<stop offset="0.208333" stop-color="#CCB3FF"/>
<stop offset="1" stop-color="#CCB3FF" stop-opacity="0"/>
</radialGradient>
<radialGradient id="paint1_radial_1244_810" cx="0" cy="0" r="1" gradientUnits="userSpaceOnUse" gradientTransform="translate(167.16 225.972) rotate(68.7965) scale(79.9052 86.5046)">
<stop offset="0.208333" stop-color="#CCB3FF"/>
<stop offset="1" stop-color="#CCB3FF" stop-opacity="0"/>
</radialGradient>
<clipPath id="clip0_1244_810">
<rect width="600" height="600" fill="white"/>
</clipPath>
</defs>
</svg>
