<svg width="600" height="600" viewBox="0 0 600 600" fill="none" xmlns="http://www.w3.org/2000/svg">
<g clip-path="url(#clip0_1244_1022)">
<mask id="path-1-outside-1_1244_1022" maskUnits="userSpaceOnUse" x="182.214" y="324" width="220" height="209" fill="black">
<rect fill="white" x="182.214" y="324" width="220" height="209"/>
<path fill-rule="evenodd" clip-rule="evenodd" d="M397.161 520.06C393.577 503.855 379.256 491.706 362.076 491.49C362.07 491.49 362.065 491.484 362.066 491.478L375.669 336.7C376.027 332.631 376.206 330.596 375.017 329.298C373.828 328 371.785 328 367.7 328H328.755C325.189 328 323.406 328 322.251 329.087C321.096 330.173 320.987 331.953 320.77 335.513V335.513L309.542 519.513C309.299 523.492 309.177 525.482 310.362 526.741C311.547 528 313.54 528 317.527 528H390.024C393.91 528 395.853 528 397.054 526.505C398.255 525.009 397.89 523.359 397.161 520.06ZM186.891 520.061C190.49 503.862 204.87 491.719 222.119 491.502C222.126 491.502 222.131 491.497 222.132 491.491L231.123 347.501C231.344 343.947 231.455 342.17 232.61 341.085C233.765 340 235.545 340 239.107 340H278.513C282.503 340 284.498 340 285.683 341.26C286.868 342.521 286.745 344.512 286.498 348.494L275.855 520.494C275.635 524.051 275.525 525.829 274.37 526.914C273.215 528 271.433 528 267.87 528H194.024C190.137 528 188.194 528 186.993 526.503C185.792 525.006 186.159 523.358 186.891 520.061Z"/>
</mask>
<path fill-rule="evenodd" clip-rule="evenodd" d="M397.161 520.06C393.577 503.855 379.256 491.706 362.076 491.49C362.07 491.49 362.065 491.484 362.066 491.478L375.669 336.7C376.027 332.631 376.206 330.596 375.017 329.298C373.828 328 371.785 328 367.7 328H328.755C325.189 328 323.406 328 322.251 329.087C321.096 330.173 320.987 331.953 320.77 335.513V335.513L309.542 519.513C309.299 523.492 309.177 525.482 310.362 526.741C311.547 528 313.54 528 317.527 528H390.024C393.91 528 395.853 528 397.054 526.505C398.255 525.009 397.89 523.359 397.161 520.06ZM186.891 520.061C190.49 503.862 204.87 491.719 222.119 491.502C222.126 491.502 222.131 491.497 222.132 491.491L231.123 347.501C231.344 343.947 231.455 342.17 232.61 341.085C233.765 340 235.545 340 239.107 340H278.513C282.503 340 284.498 340 285.683 341.26C286.868 342.521 286.745 344.512 286.498 348.494L275.855 520.494C275.635 524.051 275.525 525.829 274.37 526.914C273.215 528 271.433 528 267.87 528H194.024C190.137 528 188.194 528 186.993 526.503C185.792 525.006 186.159 523.358 186.891 520.061Z" fill="#9966FF"/>
<path d="M362.076 491.49L362.127 487.49L362.102 487.49H362.076V491.49ZM397.161 520.06L401.066 519.197L397.161 520.06ZM362.066 491.478L358.081 491.128L358.081 491.132L362.066 491.478ZM375.669 336.7L371.685 336.35V336.35L375.669 336.7ZM375.017 329.298L372.067 332L372.067 332L375.017 329.298ZM322.251 329.087L324.992 332V332L322.251 329.087ZM320.77 335.513L316.777 335.269L316.77 335.391V335.513H320.77ZM320.77 335.513L324.762 335.756L324.77 335.635V335.513H320.77ZM309.542 519.513L313.534 519.756L309.542 519.513ZM310.362 526.741L307.449 529.482H307.449L310.362 526.741ZM397.054 526.505L400.173 529.009L397.054 526.505ZM222.119 491.502V487.502H222.094L222.069 487.503L222.119 491.502ZM186.891 520.061L182.986 519.193L186.891 520.061ZM222.132 491.491L218.14 491.241L218.14 491.242L222.132 491.491ZM231.123 347.501L227.13 347.252L231.123 347.501ZM232.61 341.085L229.871 338.17L229.871 338.17L232.61 341.085ZM285.683 341.26L282.769 344V344L285.683 341.26ZM286.498 348.494L290.491 348.741L286.498 348.494ZM275.855 520.494L279.847 520.741L275.855 520.494ZM274.37 526.914L277.109 529.829L277.109 529.829L274.37 526.914ZM186.993 526.503L190.113 524L186.993 526.503ZM362.026 495.49C377.304 495.682 390.063 506.49 393.255 520.924L401.066 519.197C397.091 501.221 381.207 487.731 362.127 487.49L362.026 495.49ZM358.081 491.132C357.877 493.474 359.723 495.49 362.076 495.49V487.49C364.417 487.49 366.253 489.494 366.051 491.824L358.081 491.132ZM371.685 336.35L358.081 491.128L366.05 491.828L379.654 337.051L371.685 336.35ZM372.067 332C371.774 331.68 371.892 331.438 371.928 332.161C371.97 332.999 371.874 334.198 371.685 336.35L379.654 337.051C379.822 335.134 379.994 333.281 379.918 331.76C379.836 330.123 379.449 328.215 377.966 326.596L372.067 332ZM367.7 332C369.861 332 371.064 332.009 371.895 332.124C372.611 332.224 372.36 332.32 372.067 332L377.966 326.596C376.484 324.978 374.617 324.425 372.994 324.2C371.485 323.991 369.624 324 367.7 324V332ZM328.755 332H367.7V324H328.755V332ZM324.992 332C324.719 332.256 324.517 332.181 325.119 332.102C325.834 332.008 326.863 332 328.755 332V324C327.081 324 325.435 323.992 324.079 324.17C322.608 324.363 320.937 324.83 319.51 326.173L324.992 332ZM324.762 335.756C324.878 333.867 324.948 332.842 325.086 332.133C325.201 331.538 325.264 331.744 324.992 332L319.51 326.173C318.082 327.517 317.514 329.156 317.232 330.612C316.971 331.955 316.879 333.598 316.777 335.269L324.762 335.756ZM324.77 335.513V335.513H316.77V335.513H324.77ZM313.534 519.756L324.762 335.756L316.777 335.269L305.549 519.269L313.534 519.756ZM313.275 524C313.565 524.308 313.458 524.543 313.405 523.845C313.343 523.03 313.406 521.862 313.534 519.756L305.549 519.269C305.435 521.142 305.315 522.959 305.428 524.449C305.55 526.055 305.974 527.915 307.449 529.482L313.275 524ZM317.527 524C315.417 524 314.247 523.991 313.438 523.88C312.744 523.784 312.986 523.692 313.275 524L307.449 529.482C308.923 531.049 310.753 531.586 312.349 531.805C313.83 532.009 315.65 532 317.527 532V524ZM390.024 524H317.527V532H390.024V524ZM393.935 524C393.987 523.936 394.082 523.855 394.176 523.807C394.237 523.776 394.184 523.818 393.888 523.867C393.171 523.987 392.106 524 390.024 524V532C391.828 532 393.678 532.013 395.203 531.759C396.947 531.468 398.767 530.76 400.173 529.009L393.935 524ZM393.255 520.924C393.442 521.769 393.584 522.415 393.686 522.972C393.789 523.529 393.826 523.868 393.833 524.086C393.84 524.286 393.816 524.29 393.844 524.195C393.858 524.149 393.878 524.1 393.902 524.055C393.925 524.012 393.941 523.993 393.935 524L400.173 529.009C401.488 527.371 401.885 525.592 401.829 523.831C401.782 522.36 401.398 520.699 401.066 519.197L393.255 520.924ZM222.069 487.503C202.932 487.743 186.981 501.215 182.986 519.193L190.796 520.928C193.999 506.51 206.808 495.695 222.169 495.502L222.069 487.503ZM218.14 491.242C218.271 489.138 220.015 487.502 222.119 487.502V495.502C224.236 495.502 225.992 493.857 226.124 491.74L218.14 491.242ZM227.13 347.252L218.14 491.241L226.124 491.74L235.115 347.751L227.13 347.252ZM229.871 338.17C228.444 339.51 227.874 341.147 227.591 342.601C227.329 343.942 227.234 345.584 227.13 347.252L235.115 347.751C235.233 345.864 235.305 344.84 235.443 344.133C235.558 343.539 235.621 343.744 235.349 344L229.871 338.17ZM239.107 336C237.435 336 235.791 335.992 234.436 336.17C232.967 336.362 231.298 336.829 229.871 338.17L235.349 344C235.077 344.256 234.875 344.18 235.476 344.102C236.19 344.008 237.217 344 239.107 344V336ZM278.513 336H239.107V344H278.513V336ZM288.598 338.521C287.123 336.952 285.291 336.414 283.695 336.195C282.214 335.991 280.392 336 278.513 336V344C280.625 344 281.796 344.009 282.605 344.12C283.3 344.216 283.059 344.308 282.769 344L288.598 338.521ZM290.491 348.741C290.607 346.866 290.728 345.049 290.616 343.557C290.496 341.95 290.072 340.089 288.598 338.521L282.769 344C282.479 343.692 282.586 343.456 282.639 344.156C282.7 344.971 282.636 346.139 282.506 348.247L290.491 348.741ZM279.847 520.741L290.491 348.741L282.506 348.247L271.862 520.247L279.847 520.741ZM277.109 529.829C278.537 528.487 279.106 526.85 279.389 525.395C279.65 524.053 279.744 522.41 279.847 520.741L271.862 520.247C271.746 522.134 271.674 523.159 271.536 523.867C271.421 524.462 271.358 524.256 271.63 524L277.109 529.829ZM267.87 532C269.542 532 271.187 532.008 272.543 531.83C274.013 531.638 275.682 531.171 277.109 529.829L271.63 524C271.903 523.744 272.104 523.82 271.503 523.898C270.788 523.992 269.761 524 267.87 524V532ZM194.024 532H267.87V524H194.024V532ZM183.873 529.006C185.279 530.758 187.099 531.467 188.843 531.758C190.37 532.013 192.22 532 194.024 532V524C191.941 524 190.877 523.987 190.16 523.867C189.865 523.818 189.812 523.776 189.873 523.807C189.967 523.855 190.062 523.936 190.113 524L183.873 529.006ZM182.986 519.193C182.653 520.694 182.267 522.355 182.219 523.826C182.162 525.588 182.559 527.367 183.873 529.006L190.113 524C190.108 523.993 190.124 524.012 190.146 524.055C190.17 524.099 190.19 524.148 190.204 524.195C190.232 524.29 190.209 524.286 190.215 524.087C190.222 523.87 190.26 523.531 190.363 522.975C190.465 522.418 190.608 521.773 190.796 520.928L182.986 519.193Z" fill="#392660" mask="url(#path-1-outside-1_1244_1022)"/>
<path fill-rule="evenodd" clip-rule="evenodd" d="M281.831 423.917L226.209 426.193L231.122 347.501C231.344 343.947 231.455 342.17 232.61 341.085C233.765 340 235.545 340 239.107 340H278.513C282.503 340 284.498 340 285.683 341.26C286.868 342.521 286.745 344.512 286.498 348.494L281.831 423.917ZM368.315 420.379L315.459 422.541L320.77 335.513V335.513C320.987 331.953 321.096 330.173 322.251 329.087C323.406 328 325.189 328 328.755 328H367.7C371.785 328 373.828 328 375.017 329.298C376.206 330.596 376.027 332.631 375.669 336.7L368.315 420.379Z" fill="#392660"/>
<path d="M248.001 498.719C248.95 499.284 250.177 498.972 250.742 498.023C251.307 497.074 250.995 495.846 250.046 495.281L248.001 498.719ZM220.023 492.057C223.065 492.057 234.933 490.942 248.001 498.719L250.046 495.281C235.89 486.857 222.901 488.057 220.023 488.057V492.057Z" fill="#392660"/>
<path d="M338.046 497.719C337.097 498.284 335.87 497.972 335.305 497.023C334.74 496.074 335.051 494.846 336.001 494.281L338.046 497.719ZM366.023 491.057C362.982 491.057 351.114 489.942 338.046 497.719L336.001 494.281C350.157 485.857 363.146 487.057 366.023 487.057V491.057Z" fill="#392660"/>
<path d="M410.5 310C457.81 322.974 511.5 304 531.257 241.156" stroke="#392660" stroke-width="30"/>
<path d="M154 279.5C105 286.5 79.918 241.246 70.9008 188.275" stroke="#392660" stroke-width="30"/>
<path d="M158.153 68.0354C158.109 68.0316 158.065 68.0278 158.021 68.0239C156.255 67.8693 154.733 67.7361 153.5 67.7933C152.179 67.8546 150.893 68.1411 149.788 69.0677C148.684 69.9943 148.178 71.2116 147.889 72.5023C147.618 73.7066 147.485 75.2284 147.331 76.9947C147.327 77.0382 147.323 77.0819 147.319 77.1258L123.831 345.601L123.819 345.733C123.664 347.499 123.531 349.021 123.588 350.254C123.65 351.575 123.936 352.862 124.863 353.966C125.789 355.07 127.007 355.576 128.297 355.866C129.502 356.136 131.024 356.269 132.79 356.424L132.921 356.435L160.197 358.821C162.131 358.991 163.382 359.104 164.292 359.309C165.146 359.501 165.401 359.712 165.539 359.877C165.678 360.042 165.842 360.329 165.882 361.203C165.925 362.136 165.82 363.387 165.651 365.321L163.259 392.658L163.247 392.799C163.073 394.782 162.925 396.476 162.996 397.832C163.071 399.276 163.406 400.683 164.493 401.826C165.58 402.97 166.968 403.376 168.407 403.524C169.757 403.663 171.457 403.601 173.446 403.528L173.587 403.523L446.113 393.551L446.236 393.546C447.812 393.489 449.181 393.439 450.285 393.257C451.473 393.061 452.608 392.678 453.558 391.774C454.508 390.871 454.949 389.757 455.204 388.58C455.442 387.487 455.561 386.122 455.699 384.55L455.709 384.429L480.048 106.236L480.06 106.105C480.214 104.339 480.348 102.817 480.29 101.584C480.229 100.262 479.943 98.9757 479.016 97.8714C478.089 96.7671 476.872 96.2616 475.581 95.9717C474.377 95.7013 472.855 95.5682 471.089 95.4138L470.958 95.4023L158.153 68.0354Z" fill="#9966FF" stroke="#392660" stroke-width="4"/>
<g filter="url(#filter0_f_1244_1022)">
<ellipse cx="402.464" cy="237.087" rx="41.1834" ry="41.1834" transform="rotate(-28.7102 402.464 237.087)" fill="url(#paint0_radial_1244_1022)"/>
</g>
<g filter="url(#filter1_f_1244_1022)">
<ellipse cx="198.244" cy="219.22" rx="41.1834" ry="41.1834" transform="rotate(-28.7102 198.244 219.22)" fill="url(#paint1_radial_1244_1022)"/>
</g>
<circle cx="262.692" cy="192.621" r="48" transform="rotate(5 262.692 192.621)" fill="white" stroke="#392660" stroke-width="4"/>
<path d="M291.371 151.664C296.75 155.43 301.334 160.218 304.862 165.756C308.39 171.294 310.792 177.472 311.933 183.939C313.073 190.405 312.928 197.033 311.507 203.443C310.086 209.854 307.416 215.921 303.65 221.3C299.884 226.679 295.095 231.263 289.557 234.791C284.019 238.319 277.841 240.721 271.375 241.862C264.908 243.002 258.281 242.857 251.87 241.436C245.46 240.015 239.392 237.345 234.013 233.579L262.692 192.621L291.371 151.664Z" fill="#392660"/>
<circle cx="346.372" cy="199.942" r="48" transform="rotate(5 346.372 199.942)" fill="white" stroke="#392660" stroke-width="4"/>
<path d="M375.051 158.984C380.43 162.75 385.014 167.539 388.542 173.077C392.07 178.615 394.473 184.793 395.613 191.26C396.753 197.726 396.608 204.353 395.187 210.764C393.766 217.174 391.096 223.242 387.33 228.621C383.564 233.999 378.775 238.584 373.237 242.112C367.7 245.639 361.521 248.042 355.055 249.182C348.588 250.323 341.961 250.178 335.55 248.757C329.14 247.336 323.072 244.666 317.693 240.9L346.372 199.942L375.051 158.984Z" fill="#392660"/>
<path d="M195.251 232.206C200.784 253.101 228.487 296.347 295.033 302.169C361.579 307.991 400.401 266.215 411.494 244.6" stroke="#392660" stroke-width="4" stroke-linecap="round"/>
<path d="M290.647 325.043C298.453 326.732 317.851 327.602 332.994 317.576" stroke="#392660" stroke-width="4" stroke-linecap="round"/>
<mask id="path-17-outside-2_1244_1022" maskUnits="userSpaceOnUse" x="505.07" y="140.571" width="94.6686" height="118.616" fill="black">
<rect fill="white" x="505.07" y="140.571" width="94.6686" height="118.616"/>
<path fill-rule="evenodd" clip-rule="evenodd" d="M521.204 200.521C520.394 203.794 519.483 207.472 519.201 211.684C518.698 219.181 518.839 224.866 520.469 229.583C518.242 227.945 516.963 227.562 514.706 229.818C508.13 236.39 526.192 247.56 534.744 250.037C545.006 253.01 558.877 255.303 557.671 247.652C557.567 246.988 557.411 246.404 557.208 245.888C575.932 244.801 596.848 238.458 593.779 226.827C592.116 220.528 583.577 222.391 578.112 223.583C577.148 223.794 576.279 223.984 575.56 224.104C582.078 222.554 596.294 218.692 592.847 207.405C591.185 201.963 585.437 202.681 579.622 204.73C589.656 199.168 592.339 192.155 590.845 186.859C587.614 175.406 568.072 168.607 542.759 184.289C542.759 184.289 541.467 182.993 539.156 172.996C536.284 155.155 524.979 141.985 514.045 150.367C506.187 157.911 513.242 172.163 521.66 187.963C523.433 191.522 522.434 195.556 521.204 200.521Z"/>
</mask>
<path fill-rule="evenodd" clip-rule="evenodd" d="M521.204 200.521C520.394 203.794 519.483 207.472 519.201 211.684C518.698 219.181 518.839 224.866 520.469 229.583C518.242 227.945 516.963 227.562 514.706 229.818C508.13 236.39 526.192 247.56 534.744 250.037C545.006 253.01 558.877 255.303 557.671 247.652C557.567 246.988 557.411 246.404 557.208 245.888C575.932 244.801 596.848 238.458 593.779 226.827C592.116 220.528 583.577 222.391 578.112 223.583C577.148 223.794 576.279 223.984 575.56 224.104C582.078 222.554 596.294 218.692 592.847 207.405C591.185 201.963 585.437 202.681 579.622 204.73C589.656 199.168 592.339 192.155 590.845 186.859C587.614 175.406 568.072 168.607 542.759 184.289C542.759 184.289 541.467 182.993 539.156 172.996C536.284 155.155 524.979 141.985 514.045 150.367C506.187 157.911 513.242 172.163 521.66 187.963C523.433 191.522 522.434 195.556 521.204 200.521Z" fill="white"/>
<path d="M519.201 211.684L515.21 211.417L519.201 211.684ZM521.204 200.521L517.322 199.559L521.204 200.521ZM520.469 229.583L518.099 232.805C519.509 233.843 521.431 233.842 522.841 232.804C524.25 231.766 524.821 229.931 524.249 228.276L520.469 229.583ZM514.706 229.818L517.533 232.648L517.533 232.648L514.706 229.818ZM534.744 250.037L535.857 246.195L535.857 246.195L534.744 250.037ZM557.671 247.652L553.72 248.275L553.72 248.275L557.671 247.652ZM557.208 245.888L556.976 241.895C555.695 241.969 554.528 242.653 553.837 243.734C553.146 244.815 553.016 246.162 553.487 247.355L557.208 245.888ZM593.779 226.827L597.646 225.807L593.779 226.827ZM578.112 223.583L577.26 219.675L577.26 219.675L578.112 223.583ZM575.56 224.104L574.635 220.212C572.537 220.711 571.212 222.783 571.64 224.897C572.067 227.01 574.093 228.404 576.22 228.049L575.56 224.104ZM592.847 207.405L596.673 206.237L592.847 207.405ZM579.622 204.73L577.683 201.231C575.864 202.24 575.121 204.473 575.974 206.37C576.826 208.267 578.99 209.194 580.951 208.503L579.622 204.73ZM590.845 186.859L594.695 185.773L594.695 185.773L590.845 186.859ZM542.759 184.289L539.927 187.114C541.24 188.43 543.286 188.669 544.866 187.69L542.759 184.289ZM539.156 172.996L535.207 173.632C535.221 173.721 535.239 173.809 535.259 173.897L539.156 172.996ZM514.045 150.367L511.612 147.192C511.494 147.282 511.382 147.379 511.275 147.481L514.045 150.367ZM521.66 187.963L525.241 186.18C525.224 186.147 525.207 186.114 525.19 186.082L521.66 187.963ZM523.192 211.952C523.448 208.136 524.272 204.775 525.087 201.482L517.322 199.559C516.516 202.812 515.519 206.808 515.21 211.417L523.192 211.952ZM524.249 228.276C522.9 224.373 522.693 219.384 523.192 211.952L515.21 211.417C514.702 218.978 514.777 225.359 516.688 230.889L524.249 228.276ZM517.533 232.648C517.731 232.45 517.883 232.316 517.994 232.229C518.104 232.141 518.155 232.114 518.151 232.116C518.144 232.12 518.075 232.156 517.951 232.189C517.822 232.223 517.672 232.243 517.515 232.239C517.197 232.233 517.052 232.137 517.177 232.199C517.239 232.229 517.345 232.288 517.507 232.392C517.668 232.496 517.861 232.63 518.099 232.805L522.839 226.36C521.77 225.574 519.964 224.289 517.682 224.241C515.14 224.188 513.246 225.622 511.878 226.989L517.533 232.648ZM535.857 246.195C532.139 245.118 525.967 241.977 521.596 238.376C519.378 236.549 518.034 234.933 517.509 233.763C517.271 233.231 517.294 232.996 517.297 232.974C517.298 232.963 517.299 232.952 517.314 232.923C517.331 232.889 517.386 232.794 517.533 232.648L511.878 226.989C510.498 228.368 509.602 230.057 509.36 231.97C509.125 233.827 509.547 235.561 510.211 237.039C511.49 239.89 513.964 242.454 516.509 244.55C521.662 248.796 528.797 252.479 533.631 253.879L535.857 246.195ZM553.72 248.275C553.781 248.662 553.701 248.674 553.776 248.5C553.859 248.306 553.977 248.243 553.907 248.287C553.591 248.486 552.588 248.823 550.498 248.828C546.488 248.838 540.903 247.657 535.857 246.195L533.631 253.879C538.847 255.39 545.328 256.841 550.518 256.828C553.028 256.822 555.907 256.484 558.174 255.054C559.396 254.283 560.48 253.168 561.131 251.647C561.773 250.145 561.863 248.555 561.623 247.03L553.72 248.275ZM553.487 247.355C553.567 247.56 553.654 247.855 553.72 248.275L561.623 247.03C561.479 246.121 561.255 245.247 560.929 244.42L553.487 247.355ZM589.911 227.848C590.311 229.365 590.012 230.651 588.885 232.04C587.629 233.59 585.363 235.188 582.049 236.653C575.46 239.565 566.07 241.367 556.976 241.895L557.439 249.881C567.069 249.322 577.501 247.409 585.283 243.97C589.155 242.259 592.713 240.022 595.1 237.078C597.617 233.973 598.781 230.105 597.646 225.807L589.911 227.848ZM578.965 227.492C581.827 226.867 584.767 226.254 587.143 226.39C588.288 226.455 588.949 226.684 589.294 226.897C589.521 227.038 589.75 227.239 589.911 227.848L597.646 225.807C596.976 223.266 595.514 221.338 593.502 220.094C591.608 218.922 589.48 218.51 587.599 218.403C583.924 218.193 579.862 219.108 577.26 219.675L578.965 227.492ZM576.22 228.049C577.056 227.909 578.033 227.695 578.965 227.492L577.26 219.675C576.262 219.893 575.501 220.058 574.901 220.158L576.22 228.049ZM589.022 208.574C589.617 210.523 589.388 211.836 588.913 212.823C588.386 213.917 587.358 215.009 585.755 216.056C582.467 218.202 577.918 219.431 574.635 220.212L576.486 227.995C579.72 227.226 585.539 225.75 590.127 222.755C592.461 221.232 594.748 219.146 596.121 216.293C597.546 213.333 597.801 209.93 596.673 206.237L589.022 208.574ZM580.951 208.503C583.753 207.515 585.938 207.088 587.382 207.237C588.024 207.303 588.319 207.466 588.454 207.57C588.565 207.655 588.811 207.882 589.022 208.574L596.673 206.237C596.053 204.207 594.957 202.483 593.34 201.236C591.749 200.008 589.931 199.458 588.202 199.279C584.903 198.939 581.306 199.896 578.293 200.957L580.951 208.503ZM586.995 187.945C587.789 190.759 586.824 196.164 577.683 201.231L581.561 208.228C592.488 202.172 596.889 193.55 594.695 185.773L586.995 187.945ZM544.866 187.69C556.941 180.209 567.223 178.348 574.534 179.361C581.916 180.383 585.934 184.182 586.995 187.945L594.695 185.773C592.525 178.082 585.157 172.756 575.632 171.436C566.036 170.107 553.891 172.687 540.653 180.889L544.866 187.69ZM535.259 173.897C536.438 178.997 537.389 182.023 538.096 183.841C538.451 184.754 538.764 185.413 539.041 185.902C539.181 186.149 539.32 186.368 539.461 186.562C539.532 186.66 539.606 186.755 539.682 186.846C539.721 186.892 539.76 186.937 539.801 186.982C539.821 187.004 539.842 187.026 539.863 187.048C539.874 187.059 539.884 187.07 539.895 187.081C539.9 187.087 539.906 187.092 539.911 187.098C539.914 187.1 539.918 187.104 539.919 187.106C539.923 187.11 539.927 187.114 542.759 184.289C545.591 181.465 545.596 181.469 545.6 181.473C545.601 181.474 545.605 181.478 545.608 181.481C545.613 181.486 545.618 181.492 545.623 181.497C545.634 181.508 545.644 181.518 545.654 181.528C545.674 181.549 545.692 181.569 545.71 181.589C545.746 181.628 545.778 181.665 545.806 181.698C545.863 181.766 545.906 181.823 545.938 181.866C545.999 181.951 546.019 181.99 546.002 181.959C545.964 181.893 545.809 181.603 545.552 180.942C545.036 179.613 544.185 176.992 543.054 172.095L535.259 173.897ZM516.479 153.541C518.502 151.99 520.225 151.642 521.675 151.826C523.212 152.021 524.973 152.885 526.82 154.7C530.572 158.389 533.857 165.243 535.207 173.632L543.105 172.36C541.584 162.908 537.779 154.256 532.428 148.995C529.722 146.335 526.428 144.364 522.68 143.889C518.845 143.403 515.055 144.552 511.612 147.192L516.479 153.541ZM525.19 186.082C520.939 178.103 517.294 170.974 515.598 164.98C513.887 158.933 514.531 155.445 516.816 153.252L511.275 147.481C505.701 152.832 505.943 160.243 507.9 167.158C509.871 174.126 513.963 182.023 518.13 189.844L525.19 186.082ZM525.087 201.482C525.681 199.082 526.328 196.51 526.543 194.064C526.765 191.528 526.559 188.827 525.241 186.18L518.079 189.746C518.534 190.658 518.714 191.754 518.573 193.365C518.424 195.068 517.957 196.994 517.322 199.559L525.087 201.482Z" fill="#392660" mask="url(#path-17-outside-2_1244_1022)"/>
<path d="M554.486 212.11C550.48 236.296 592.411 225.386 594.758 214.206" stroke="#392660" stroke-width="4" stroke-linecap="round"/>
<path d="M568.086 190.031C555.993 188.028 546.756 197.301 549.201 205.323C553.92 222.643 587.817 205.981 592.471 194.206" stroke="#392660" stroke-width="4" stroke-linecap="round"/>
<path d="M543.016 179.514C544.18 183.469 545.241 184.927 547.343 187.342" stroke="#392660" stroke-width="4" stroke-linecap="round"/>
<path d="M537.295 238.196C538.721 240.263 547.996 247.682 562.226 246.908" stroke="#392660" stroke-width="4" stroke-linecap="round" stroke-linejoin="round"/>
<path d="M573.416 226.247C560.128 227.449 556.06 232.713 558.92 240.061C561.781 247.409 571.013 247.27 582.73 242.83" stroke="#392660" stroke-width="4" stroke-linecap="round"/>
<mask id="path-24-outside-3_1244_1022" maskUnits="userSpaceOnUse" x="4.04785" y="84" width="90" height="115" fill="black">
<rect fill="white" x="4.04785" y="84" width="90" height="115"/>
<path fill-rule="evenodd" clip-rule="evenodd" d="M80.2496 140.949C81.1944 144.186 82.256 147.823 82.7123 152.021C83.5241 159.49 83.6179 165.177 82.1838 169.957C84.3416 168.228 85.6028 167.793 87.9516 169.954C94.7926 176.248 77.2074 188.155 68.7651 190.983C58.6343 194.376 44.8698 197.24 45.7585 189.546C45.8356 188.878 45.9671 188.287 46.149 187.764C27.3957 187.45 6.23549 181.975 8.82269 170.228C10.224 163.866 18.8324 165.375 24.3419 166.341C25.3145 166.511 26.1905 166.665 26.9132 166.755C20.3366 165.475 5.97343 162.204 8.95174 150.784C10.3879 145.278 16.1608 145.758 22.0554 147.566C11.8007 142.423 8.83042 135.526 10.1047 130.173C12.8601 118.597 32.1047 110.997 58.0433 125.621C58.0433 125.621 59.2813 124.273 61.1773 114.189C63.3111 96.2447 74.063 82.6193 85.333 90.5428C93.496 97.7565 87.0355 112.288 79.2762 128.421C77.6521 132.05 78.8165 136.04 80.2496 140.949Z"/>
</mask>
<path fill-rule="evenodd" clip-rule="evenodd" d="M80.2496 140.949C81.1944 144.186 82.256 147.823 82.7123 152.021C83.5241 159.49 83.6179 165.177 82.1838 169.957C84.3416 168.228 85.6028 167.793 87.9516 169.954C94.7926 176.248 77.2074 188.155 68.7651 190.983C58.6343 194.376 44.8698 197.24 45.7585 189.546C45.8356 188.878 45.9671 188.287 46.149 187.764C27.3957 187.45 6.23549 181.975 8.82269 170.228C10.224 163.866 18.8324 165.375 24.3419 166.341C25.3145 166.511 26.1905 166.665 26.9132 166.755C20.3366 165.475 5.97343 162.204 8.95174 150.784C10.3879 145.278 16.1608 145.758 22.0554 147.566C11.8007 142.423 8.83042 135.526 10.1047 130.173C12.8601 118.597 32.1047 110.997 58.0433 125.621C58.0433 125.621 59.2813 124.273 61.1773 114.189C63.3111 96.2447 74.063 82.6193 85.333 90.5428C93.496 97.7565 87.0355 112.288 79.2762 128.421C77.6521 132.05 78.8165 136.04 80.2496 140.949Z" fill="white"/>
<path d="M82.7123 152.021L86.6888 151.589L82.7123 152.021ZM80.2496 140.949L84.0894 139.829L80.2496 140.949ZM82.1838 169.957L84.6846 173.078C83.3181 174.173 81.3985 174.252 79.947 173.273C78.4955 172.294 77.8494 170.484 78.3525 168.807L82.1838 169.957ZM87.9516 169.954L85.2432 172.898L85.2432 172.898L87.9516 169.954ZM68.7651 190.983L67.4946 187.19L67.4946 187.19L68.7651 190.983ZM45.7585 189.546L49.732 190.005L49.732 190.005L45.7585 189.546ZM46.149 187.764L46.2159 183.764C47.4986 183.786 48.6932 184.421 49.4279 185.473C50.1627 186.524 50.3485 187.865 49.9275 189.077L46.149 187.764ZM8.82269 170.228L4.91631 169.368L8.82269 170.228ZM24.3419 166.341L25.0326 162.401L25.0326 162.401L24.3419 166.341ZM26.9132 166.755L27.6773 162.829C29.7939 163.241 31.2031 165.256 30.8632 167.386C30.5233 169.515 28.5568 170.992 26.4171 170.724L26.9132 166.755ZM8.95174 150.784L5.08122 149.775L5.08122 149.775L8.95174 150.784ZM22.0554 147.566L23.8486 143.99C25.7075 144.922 26.5419 147.124 25.7683 149.054C24.9946 150.984 22.871 152 20.8829 151.39L22.0554 147.566ZM10.1047 130.173L6.21339 129.246L6.21339 129.246L10.1047 130.173ZM58.0433 125.621L60.9895 128.327C59.7324 129.696 57.6978 130.019 56.0787 129.106L58.0433 125.621ZM61.1773 114.189L65.1493 114.661C65.1386 114.751 65.125 114.84 65.1084 114.928L61.1773 114.189ZM85.333 90.5428L87.6335 87.2706C87.7546 87.3557 87.8708 87.4474 87.9817 87.5454L85.333 90.5428ZM79.2762 128.421L75.6252 126.787C75.6401 126.754 75.6556 126.721 75.6715 126.688L79.2762 128.421ZM78.7357 152.453C78.3224 148.65 77.3605 145.327 76.4098 142.07L84.0894 139.829C85.0284 143.046 86.1897 146.996 86.6888 151.589L78.7357 152.453ZM78.3525 168.807C79.5392 164.852 79.5405 159.858 78.7357 152.453L86.6888 151.589C87.5077 159.123 87.6965 165.501 86.0151 171.106L78.3525 168.807ZM85.2432 172.898C85.0371 172.708 84.8797 172.581 84.7658 172.498C84.6519 172.415 84.5997 172.39 84.6041 172.392C84.6118 172.396 84.6821 172.429 84.8071 172.457C84.937 172.485 85.0876 172.499 85.2446 172.489C85.5623 172.469 85.7028 172.368 85.5809 172.434C85.5198 172.468 85.4164 172.53 85.2593 172.641C85.1026 172.751 84.9155 172.893 84.6846 173.078L79.683 166.835C80.7185 166.005 82.4692 164.646 84.7475 164.504C87.2856 164.346 89.2367 165.701 90.66 167.01L85.2432 172.898ZM67.4946 187.19C71.1646 185.96 77.2022 182.567 81.4209 178.789C83.5613 176.872 84.837 175.202 85.3132 174.012C85.5298 173.47 85.4969 173.236 85.4932 173.214C85.4915 173.203 85.4895 173.192 85.4733 173.164C85.4549 173.131 85.3961 173.038 85.2432 172.898L90.6599 167.01C92.0957 168.331 93.0612 169.982 93.3819 171.884C93.6929 173.729 93.3425 175.479 92.7407 176.984C91.5799 179.884 89.2143 182.548 86.7583 184.748C81.7841 189.203 74.8079 193.177 70.0355 194.775L67.4946 187.19ZM49.732 190.005C49.687 190.394 49.7674 190.403 49.6858 190.232C49.595 190.042 49.4746 189.984 49.5462 190.025C49.8694 190.211 50.8863 190.506 52.9744 190.425C56.9814 190.269 62.5132 188.858 67.4946 187.19L70.0355 194.775C64.8862 196.5 58.4703 198.218 53.2846 198.419C50.7763 198.516 47.8855 198.297 45.5612 196.962C44.3091 196.242 43.18 195.173 42.4669 193.68C41.7631 192.206 41.6077 190.621 41.7849 189.087L49.732 190.005ZM49.9275 189.077C49.8554 189.284 49.7808 189.583 49.732 190.005L41.7849 189.087C41.8905 188.173 42.0789 187.291 42.3706 186.451L49.9275 189.077ZM12.7291 171.089C12.3917 172.621 12.744 173.893 13.9269 175.235C15.2465 176.732 17.576 178.235 20.9476 179.561C27.6518 182.199 37.1073 183.612 46.2159 183.764L46.0822 191.763C36.4374 191.602 25.9361 190.121 18.0187 187.006C14.0795 185.456 10.4319 183.368 7.92566 180.525C5.28255 177.527 3.96011 173.71 4.91631 169.368L12.7291 171.089ZM23.6513 170.281C20.7655 169.775 17.803 169.284 15.4342 169.517C14.2929 169.63 13.6426 169.886 13.3066 170.113C13.0853 170.263 12.8646 170.473 12.7291 171.089L4.91631 169.368C5.4814 166.802 6.86221 164.815 8.82133 163.489C10.6657 162.24 12.7746 161.741 14.6493 161.556C18.3124 161.195 22.4089 161.941 25.0326 162.401L23.6513 170.281ZM26.4171 170.724C25.5755 170.619 24.5911 170.446 23.6513 170.281L25.0326 162.401C26.0379 162.577 26.8055 162.711 27.4093 162.786L26.4171 170.724ZM12.8223 151.794C12.3078 153.767 12.591 155.069 13.1065 156.035C13.6777 157.106 14.75 158.155 16.3955 159.135C19.7691 161.143 24.3644 162.184 27.6773 162.829L26.1491 170.682C22.8855 170.046 17.0109 168.812 12.3033 166.009C9.90826 164.583 7.53715 162.593 6.04735 159.799C4.50186 156.901 4.10656 153.512 5.08122 149.775L12.8223 151.794ZM20.8829 151.39C18.0426 150.519 15.8423 150.183 14.4059 150.391C13.7664 150.484 13.4788 150.658 13.3477 150.768C13.2412 150.858 13.0048 151.094 12.8223 151.794L5.08122 149.775C5.61676 147.722 6.64059 145.953 8.2046 144.64C9.74409 143.348 11.5374 142.723 13.2574 142.474C16.5402 141.998 20.1736 142.805 23.2279 143.741L20.8829 151.39ZM13.996 131.099C13.3188 133.944 14.5063 139.305 23.8486 143.99L20.2621 151.141C9.09512 145.541 4.34207 137.108 6.21339 129.246L13.996 131.099ZM56.0787 129.106C43.7056 122.13 33.355 120.694 26.0922 122.008C18.7591 123.334 14.9012 127.296 13.996 131.099L6.21339 129.246C8.06363 121.473 15.2057 115.847 24.6684 114.136C34.2014 112.411 46.4423 114.489 60.0078 122.137L56.0787 129.106ZM65.1084 114.928C64.1411 120.073 63.3155 123.135 62.6839 124.981C62.3669 125.908 62.0817 126.579 61.8253 127.079C61.6956 127.332 61.5656 127.556 61.4325 127.756C61.3655 127.857 61.2959 127.955 61.2231 128.049C61.1866 128.096 61.149 128.143 61.1102 128.189C61.0908 128.212 61.0711 128.236 61.051 128.258C61.0409 128.27 61.0308 128.281 61.0205 128.293C61.0154 128.298 61.0103 128.304 61.0051 128.31C61.0025 128.313 60.9986 128.317 60.9973 128.318C60.9934 128.323 60.9895 128.327 58.0433 125.621C55.097 122.916 55.0931 122.92 55.0892 122.924C55.0879 122.926 55.0841 122.93 55.0815 122.933C55.0764 122.938 55.0714 122.944 55.0664 122.95C55.0565 122.961 55.0468 122.972 55.0374 122.982C55.0185 123.004 55.0005 123.025 54.9835 123.045C54.9496 123.086 54.9192 123.124 54.8922 123.158C54.8385 123.228 54.7973 123.287 54.7678 123.331C54.7099 123.418 54.6913 123.459 54.7074 123.427C54.7423 123.359 54.8851 123.063 55.1146 122.392C55.576 121.043 56.3174 118.39 57.2461 113.45L65.1084 114.928ZM83.0324 93.815C80.9468 92.3487 79.2109 92.0722 77.7703 92.3155C76.2424 92.5735 74.5182 93.5103 72.7486 95.3998C69.1514 99.2406 66.1526 106.224 65.1493 114.661L57.2052 113.717C58.3358 104.209 61.7799 95.4082 66.9096 89.9311C69.5033 87.1617 72.7136 85.0562 76.4381 84.4272C80.2498 83.7835 84.0842 84.7751 87.6335 87.2706L83.0324 93.815ZM75.6715 126.688C79.5899 118.54 82.9378 111.267 84.3849 105.208C85.8447 99.0957 85.0573 95.6372 82.6842 93.5401L87.9817 87.5454C93.7717 92.6621 93.8356 100.076 92.1661 107.066C90.4838 114.11 86.7218 122.169 82.881 130.155L75.6715 126.688ZM76.4098 142.07C75.7171 139.697 74.9646 137.153 74.6495 134.719C74.3227 132.194 74.417 129.487 75.6252 126.787L82.9273 130.055C82.5112 130.985 82.3757 132.087 82.5833 133.692C82.8027 135.386 83.349 137.292 84.0894 139.829L76.4098 142.07Z" fill="#392660" mask="url(#path-24-outside-3_1244_1022)"/>
<path d="M47.4745 153.903C52.4747 177.903 10.1299 168.732 7.32379 157.659" stroke="#392660" stroke-width="4" stroke-linecap="round"/>
<path d="M32.9745 132.403C44.9746 129.903 54.5865 138.787 52.4744 146.903C48.4744 164.403 13.9185 149.153 8.78255 137.58" stroke="#392660" stroke-width="4" stroke-linecap="round"/>
<path d="M57.5898 120.861C56.5898 124.861 55.5898 126.361 53.5898 128.861" stroke="#392660" stroke-width="4" stroke-linecap="round"/>
<path d="M65.7268 179.256C64.3878 181.381 55.4267 189.176 41.1768 188.99" stroke="#392660" stroke-width="4" stroke-linecap="round" stroke-linejoin="round"/>
<path d="M29.1441 168.808C42.47 169.461 46.7523 174.552 44.1974 182.012C41.6424 189.472 32.4124 189.714 20.522 185.762" stroke="#392660" stroke-width="4" stroke-linecap="round"/>
</g>
<defs>
<filter id="filter0_f_1244_1022" x="353.273" y="187.896" width="98.3823" height="98.3823" filterUnits="userSpaceOnUse" color-interpolation-filters="sRGB">
<feFlood flood-opacity="0" result="BackgroundImageFix"/>
<feBlend mode="normal" in="SourceGraphic" in2="BackgroundImageFix" result="shape"/>
<feGaussianBlur stdDeviation="4" result="effect1_foregroundBlur_1244_1022"/>
</filter>
<filter id="filter1_f_1244_1022" x="149.053" y="170.029" width="98.3823" height="98.3823" filterUnits="userSpaceOnUse" color-interpolation-filters="sRGB">
<feFlood flood-opacity="0" result="BackgroundImageFix"/>
<feBlend mode="normal" in="SourceGraphic" in2="BackgroundImageFix" result="shape"/>
<feGaussianBlur stdDeviation="4" result="effect1_foregroundBlur_1244_1022"/>
</filter>
<radialGradient id="paint0_radial_1244_1022" cx="0" cy="0" r="1" gradientUnits="userSpaceOnUse" gradientTransform="translate(392.58 200.297) rotate(68.7965) scale(79.9052 86.5046)">
<stop offset="0.208333" stop-color="#CCB3FF"/>
<stop offset="1" stop-color="#CCB3FF" stop-opacity="0"/>
</radialGradient>
<radialGradient id="paint1_radial_1244_1022" cx="0" cy="0" r="1" gradientUnits="userSpaceOnUse" gradientTransform="translate(188.36 182.429) rotate(68.7965) scale(79.9052 86.5046)">
<stop offset="0.208333" stop-color="#CCB3FF"/>
<stop offset="1" stop-color="#CCB3FF" stop-opacity="0"/>
</radialGradient>
<clipPath id="clip0_1244_1022">
<rect width="600" height="600" fill="white"/>
</clipPath>
</defs>
</svg>
