<svg width="600" height="600" viewBox="0 0 600 600" fill="none" xmlns="http://www.w3.org/2000/svg">
<g clip-path="url(#clip0_1244_862)">
<path d="M313.473 481.006C312.395 483.204 311.661 484.705 311.244 485.852C310.819 487.023 310.892 487.402 310.929 487.511C310.955 487.589 311.136 487.957 312.328 488.707C313.468 489.424 315.127 490.254 317.522 491.448C333.767 499.547 338.246 514.098 339.452 524.415L339.469 524.561C339.66 526.201 339.831 527.662 339.778 528.875C339.719 530.229 339.377 531.499 338.385 532.614C337.366 533.759 336.073 534.228 334.692 534.436C333.426 534.626 331.847 534.626 330.035 534.625L329.891 534.625L266.851 534.625L266.655 534.625C260.158 534.626 255.025 534.626 251.121 533.97C247.082 533.292 243.978 531.852 241.931 528.692C239.904 525.56 239.792 522.247 240.753 518.424C241.675 514.759 243.661 510.328 246.162 504.752L246.244 504.568C247.673 501.381 249.125 498.227 250.565 495.1C256.999 481.128 263.191 467.682 265.965 454.152C269.319 437.788 267.623 421.44 254.894 404.274C246.493 392.946 243.263 383.185 243.921 375.353C244.59 367.402 249.241 361.774 255.75 358.881C268.574 353.181 288.417 358.034 300.621 374.912C311.637 390.147 319.925 406.366 322.908 423.97C325.897 441.612 323.533 460.503 313.473 481.006Z" fill="#9966FF" stroke="#392660" stroke-width="4"/>
<path d="M271.173 506.679C270.567 507.603 269.328 507.861 268.404 507.256C267.48 506.65 267.222 505.411 267.827 504.487L271.173 506.679ZM315.729 492.838C313.584 491.471 310.347 490.68 306.36 490.596C302.41 490.513 297.906 491.129 293.389 492.392C284.284 494.94 275.554 499.991 271.173 506.679L267.827 504.487C272.945 496.674 282.716 491.225 292.312 488.54C297.145 487.188 302.043 486.504 306.444 486.597C310.808 486.688 314.873 487.548 317.88 489.465L315.729 492.838Z" fill="#392660"/>
<path d="M445.803 423.113C454.565 418.513 466.778 414.145 478.102 414.112C484.212 414.094 490.192 415.339 495.221 418.623C500.286 421.931 504.204 427.189 506.356 434.843C508.631 442.938 505.421 452.415 499.6 461.354C493.726 470.377 484.931 479.27 475.235 486.397C465.55 493.515 454.818 498.981 445.018 500.993C435.226 503.003 425.935 501.618 419.894 494.37L419.745 494.191L419.641 493.982L330.21 314.675L329.371 312.991L331 312.05L378.81 284.448L380.701 283.356L381.623 285.335L445.803 423.113Z" fill="#9966FF" stroke="#392660" stroke-width="4"/>
<path d="M479.806 432.47C461.472 432.904 446.091 445.08 443.09 463.498" stroke="#392660" stroke-width="4" stroke-linecap="round"/>
<path d="M429.857 449.855C429.592 450.937 428.515 451.604 427.452 451.345C426.388 451.085 425.74 449.997 426.005 448.915L429.857 449.855ZM469.657 416.885C463.978 417.595 455.278 420.477 447.346 425.926C439.433 431.362 432.453 439.233 429.857 449.855L426.005 448.915C428.908 437.037 436.678 428.407 445.141 422.594C453.584 416.793 462.883 413.675 469.204 412.885L469.657 416.885Z" fill="#392660"/>
<path fill-rule="evenodd" clip-rule="evenodd" d="M424.431 381.234L375.475 400.923L337.001 323.783L384.81 296.18L424.431 381.234Z" fill="#392660"/>
<path d="M138.614 332.083C79.5356 328.583 46.5355 364.083 82.5356 426.583" stroke="#392660" stroke-width="30"/>
<path d="M425.536 278.584C474.538 280.895 546.535 273.583 521.036 197.583" stroke="#392660" stroke-width="30"/>
<path fill-rule="evenodd" clip-rule="evenodd" d="M320.697 422.955L269.371 443.599C270.082 430.344 266.777 416.939 256.5 403.081C223.501 358.581 275.5 343.582 299 376.082C309.623 390.773 317.595 406.269 320.697 422.955Z" fill="#392660"/>
<path d="M87.6619 134.408C87.6194 134.419 87.577 134.431 87.5347 134.442C85.8221 134.901 84.3466 135.296 83.2075 135.771C81.9867 136.281 80.8757 136.99 80.155 138.239C79.4342 139.487 79.3755 140.804 79.5446 142.116C79.7023 143.34 80.0978 144.815 80.5568 146.528C80.5681 146.57 80.5795 146.613 80.5908 146.655L150.343 406.973L150.377 407.1C150.836 408.813 151.231 410.289 151.707 411.428C152.216 412.648 152.925 413.76 154.174 414.48C155.422 415.201 156.739 415.26 158.051 415.091C159.275 414.933 160.751 414.537 162.463 414.078L162.59 414.044L189.037 406.958C190.913 406.455 192.127 406.134 193.053 406.015C193.921 405.903 194.232 406.015 194.419 406.122C194.605 406.23 194.857 406.444 195.195 407.252C195.554 408.113 195.883 409.325 196.386 411.201L203.488 437.707L203.525 437.843C204.04 439.766 204.48 441.409 205.01 442.658C205.575 443.99 206.37 445.197 207.783 445.9C209.196 446.603 210.639 446.509 212.042 446.157C213.358 445.826 214.934 445.186 216.778 444.437L216.909 444.384L469.589 341.804L469.703 341.758C471.164 341.164 472.433 340.649 473.408 340.101C474.458 339.51 475.394 338.762 475.978 337.588C476.561 336.415 476.594 335.217 476.432 334.024C476.281 332.915 475.927 331.592 475.518 330.067L475.487 329.95L403.21 60.2096L403.176 60.0826C402.717 58.37 402.322 56.8943 401.846 55.7552C401.337 54.5345 400.628 53.4235 399.379 52.7027C398.131 51.9819 396.814 51.9232 395.502 52.0923C394.278 52.25 392.802 52.6455 391.09 53.1045L390.963 53.1386L87.6619 134.408Z" fill="#9966FF" stroke="#392660" stroke-width="4"/>
<g filter="url(#filter0_f_1244_862)">
<ellipse cx="375.059" cy="209.705" rx="41.1834" ry="41.1834" transform="rotate(-48.7102 375.059 209.705)" fill="url(#paint0_radial_1244_862)"/>
</g>
<g filter="url(#filter1_f_1244_862)">
<ellipse cx="177.044" cy="262.763" rx="41.1834" ry="41.1834" transform="rotate(-48.7102 177.044 262.763)" fill="url(#paint1_radial_1244_862)"/>
</g>
<circle cx="228.508" cy="215.725" r="48" transform="rotate(-15 228.508 215.725)" fill="white" stroke="#392660" stroke-width="4"/>
<path d="M241.449 167.429C247.791 169.128 253.737 172.06 258.946 176.057C264.155 180.054 268.526 185.039 271.809 190.725C275.092 196.411 277.223 202.689 278.08 209.199C278.937 215.709 278.503 222.324 276.804 228.666C275.105 235.008 272.173 240.954 268.175 246.163C264.178 251.372 259.194 255.743 253.508 259.026C247.821 262.309 241.544 264.44 235.034 265.297C228.524 266.154 221.909 265.721 215.567 264.021L228.508 215.725L241.449 167.429Z" fill="#392660"/>
<circle cx="309.645" cy="193.984" r="48" transform="rotate(-15 309.645 193.984)" fill="white" stroke="#392660" stroke-width="4"/>
<path d="M322.586 145.688C328.929 147.387 334.874 150.319 340.084 154.317C345.293 158.314 349.664 163.298 352.947 168.984C356.23 174.671 358.361 180.948 359.218 187.458C360.075 193.968 359.641 200.583 357.942 206.925C356.242 213.268 353.31 219.213 349.313 224.422C345.316 229.632 340.332 234.002 334.645 237.286C328.959 240.569 322.682 242.699 316.172 243.556C309.662 244.414 303.047 243.98 296.704 242.281L309.645 193.984L322.586 145.688Z" fill="#392660"/>
<path d="M178.673 275.989C191.019 293.731 231.842 324.894 296.366 307.605C360.89 290.316 383.082 237.782 386.113 213.676" stroke="#392660" stroke-width="4" stroke-linecap="round"/>
<path d="M300.068 330.6C307.981 329.517 326.506 323.701 337.307 309.1" stroke="#392660" stroke-width="4" stroke-linecap="round"/>
<mask id="path-19-outside-1_1244_862" maskUnits="userSpaceOnUse" x="31.4637" y="371.312" width="133.711" height="133.711" fill="black">
<rect fill="white" x="31.4637" y="371.312" width="133.711" height="133.711"/>
<path fill-rule="evenodd" clip-rule="evenodd" d="M130.468 445.866C129.822 445.443 129.173 445.019 128.535 444.583C152.143 416.834 122.917 391.828 95.3208 399.994C95.491 399.362 95.4274 398.562 95.1159 397.473C92.7356 389.151 75.4823 398.811 69.6028 404.655C62.5473 411.668 54.9378 423.784 61.7112 426.259C62.1015 426.401 62.4717 426.504 62.8241 426.569C47.1204 455.913 74.8192 492.528 94.4781 480.201C95.7523 479.402 96.2976 478.357 96.3072 477.157C101.536 478.479 107.487 478.289 113.184 475.456C116.576 473.77 117.251 470.923 116.543 467.698C123.951 471.802 133.967 470.371 137 464C142.03 453.437 136.368 449.73 130.468 445.866Z"/>
</mask>
<path fill-rule="evenodd" clip-rule="evenodd" d="M130.468 445.866C129.822 445.443 129.173 445.019 128.535 444.583C152.143 416.834 122.917 391.828 95.3208 399.994C95.491 399.362 95.4274 398.562 95.1159 397.473C92.7356 389.151 75.4823 398.811 69.6028 404.655C62.5473 411.668 54.9378 423.784 61.7112 426.259C62.1015 426.401 62.4717 426.504 62.8241 426.569C47.1204 455.913 74.8192 492.528 94.4781 480.201C95.7523 479.402 96.2976 478.357 96.3072 477.157C101.536 478.479 107.487 478.289 113.184 475.456C116.576 473.77 117.251 470.923 116.543 467.698C123.951 471.802 133.967 470.371 137 464C142.03 453.437 136.368 449.73 130.468 445.866Z" fill="white"/>
<path d="M128.535 444.583L125.489 441.991C124.754 442.855 124.42 443.99 124.571 445.114C124.721 446.238 125.342 447.245 126.279 447.885L128.535 444.583ZM130.468 445.866L132.659 442.52L132.659 442.52L130.468 445.866ZM95.3208 399.994L91.4582 398.955C91.0819 400.354 91.4911 401.847 92.5278 402.858C93.5646 403.869 95.0671 404.241 96.4559 403.83L95.3208 399.994ZM95.1159 397.473L91.2701 398.573L91.2701 398.573L95.1159 397.473ZM69.6028 404.655L72.4226 407.492L69.6028 404.655ZM61.7112 426.259L60.3388 430.016L60.3388 430.016L61.7112 426.259ZM62.8241 426.569L66.3508 428.457C66.9526 427.332 66.982 425.988 66.43 424.838C65.878 423.688 64.8108 422.871 63.5569 422.637L62.8241 426.569ZM96.3072 477.157L97.2873 473.279C96.0968 472.978 94.834 473.241 93.8621 473.991C92.8903 474.742 92.317 475.897 92.3073 477.125L96.3072 477.157ZM113.184 475.456L111.403 471.875L113.184 475.456ZM116.543 467.698L118.481 464.199C117.107 463.438 115.413 463.552 114.153 464.491C112.893 465.43 112.299 467.02 112.636 468.555L116.543 467.698ZM137 464L140.612 465.72L137 464ZM126.279 447.885C126.955 448.347 127.637 448.794 128.277 449.213L132.659 442.52C132.008 442.093 131.392 441.69 130.792 441.28L126.279 447.885ZM96.4559 403.83C108.902 400.147 121.465 404.038 128.152 411.491C131.447 415.164 133.308 419.668 133.187 424.663C133.065 429.675 130.934 435.59 125.489 441.991L131.582 447.175C137.94 439.701 141.009 432.084 141.185 424.858C141.361 417.615 138.617 411.176 134.107 406.149C125.184 396.204 109.336 391.676 94.1858 396.159L96.4559 403.83ZM91.2701 398.573C91.3783 398.951 91.406 399.152 91.412 399.227C91.4172 399.292 91.399 399.175 91.4582 398.955L99.1835 401.034C99.6332 399.362 99.3477 397.722 98.9616 396.373L91.2701 398.573ZM72.4226 407.492C74.9501 404.979 80.2633 401.393 85.1372 399.473C87.6131 398.498 89.4881 398.152 90.6141 398.248C91.1195 398.291 91.2484 398.404 91.2136 398.379C91.1323 398.319 91.1895 398.291 91.2701 398.573L98.9616 396.373C98.4471 394.574 97.4445 393.027 95.9411 391.925C94.4842 390.858 92.8287 390.407 91.29 390.276C88.3279 390.025 85.0758 390.899 82.2058 392.03C76.3882 394.321 70.135 398.486 66.7829 401.818L72.4226 407.492ZM63.0837 422.501C62.8675 422.422 62.9365 422.398 63.0426 422.543C63.1385 422.674 63.099 422.719 63.0816 422.503C63.0351 421.928 63.2391 420.714 64.1056 418.829C65.7858 415.174 69.1195 410.775 72.4226 407.492L66.7829 401.818C63.0305 405.547 59.0318 410.713 56.8368 415.488C55.7656 417.818 54.8963 420.536 55.1076 423.148C55.219 424.525 55.6412 425.978 56.5899 427.272C57.5487 428.58 58.8616 429.476 60.3388 430.016L63.0837 422.501ZM63.5569 422.637C63.4463 422.616 63.2903 422.577 63.0836 422.501L60.3388 430.016C60.9127 430.225 61.497 430.391 62.0912 430.502L63.5569 422.637ZM92.3532 476.812C88.7108 479.096 84.6937 479.196 80.5846 477.463C76.3667 475.684 72.1185 471.963 68.7321 466.814C61.9449 456.494 59.3281 441.579 66.3508 428.457L59.2973 424.682C50.6163 440.904 53.9971 458.968 62.0481 471.21C66.0807 477.342 71.4619 482.297 77.4758 484.834C83.5986 487.416 90.416 487.47 96.6031 483.59L92.3532 476.812ZM92.3073 477.125C92.3073 477.125 92.3078 477.087 92.3245 477.023C92.3418 476.956 92.3702 476.886 92.4077 476.821C92.4447 476.757 92.476 476.724 92.48 476.72C92.4822 476.718 92.4481 476.753 92.3532 476.812L96.6031 483.59C98.947 482.12 100.286 479.854 100.307 477.189L92.3073 477.125ZM111.403 471.875C106.682 474.222 101.728 474.401 97.2873 473.279L95.327 481.035C101.344 482.556 108.293 482.355 114.965 479.038L111.403 471.875ZM112.636 468.555C112.889 469.71 112.797 470.377 112.662 470.732C112.566 470.985 112.334 471.412 111.403 471.875L114.965 479.038C117.426 477.815 119.227 475.975 120.139 473.577C121.013 471.28 120.904 468.911 120.45 466.841L112.636 468.555ZM133.389 462.28C132.599 463.94 130.705 465.335 127.748 465.833C124.822 466.325 121.384 465.807 118.481 464.199L114.605 471.197C119.11 473.693 124.385 474.511 129.076 473.722C133.738 472.937 138.368 470.431 140.612 465.72L133.389 462.28ZM128.277 449.213C131.452 451.292 133.388 452.665 134.34 454.371C135.025 455.596 135.559 457.721 133.389 462.28L140.612 465.72C143.471 459.715 143.69 454.705 141.325 450.471C139.229 446.716 135.384 444.304 132.659 442.52L128.277 449.213Z" fill="#392660" mask="url(#path-19-outside-1_1244_862)"/>
<path d="M125 424L122 429.5" stroke="#392660" stroke-width="4" stroke-linecap="round"/>
<path d="M82 411C79.5 412.667 73.6 417.3 70 422.5" stroke="#392660" stroke-width="4" stroke-linecap="round" stroke-linejoin="round"/>
<path d="M98.5116 479.631C95.2101 478.801 87.7836 475.459 81.7834 465" stroke="#392660" stroke-width="4" stroke-linecap="round" stroke-linejoin="round"/>
<path d="M132.866 445.083C129.841 443.522 123.366 438.583 119.866 427.083" stroke="#392660" stroke-width="4" stroke-linecap="round" stroke-linejoin="round"/>
<path d="M122.425 471.764C118.802 470.893 110.784 467.045 105 454" stroke="#392660" stroke-width="4" stroke-linecap="round" stroke-linejoin="round"/>
<mask id="path-26-outside-2_1244_862" maskUnits="userSpaceOnUse" x="440.779" y="82.0729" width="121.82" height="148.392" fill="black">
<rect fill="white" x="440.779" y="82.0729" width="121.82" height="148.392"/>
<path fill-rule="evenodd" clip-rule="evenodd" d="M471.848 148.835C473.416 151.829 475.037 154.921 476.67 158.098C446.733 172.972 472.557 207.488 503.528 207.496C502.3 208.006 501.762 208.925 501.8 211.04C501.956 219.694 521.115 214.806 528.302 210.675C536.927 205.716 547.401 195.97 541.494 191.834C540.42 191.082 539.437 190.765 538.497 190.777C554.964 169.84 546.662 138.113 521.5 146.5C520.942 146.686 520.433 146.905 519.971 147.153C523.813 126.164 529.252 92.5001 514 92.5001C497.976 92.5001 497.539 127.77 499.222 147.783C499.325 149.012 496.375 149.825 495.918 148.679C494.938 146.221 493.96 143.701 492.978 141.17C484.466 119.239 475.595 96.381 461.5 104C451.255 109.538 460.1 126.417 471.848 148.835Z"/>
</mask>
<path fill-rule="evenodd" clip-rule="evenodd" d="M471.848 148.835C473.416 151.829 475.037 154.921 476.67 158.098C446.733 172.972 472.557 207.488 503.528 207.496C502.3 208.006 501.762 208.925 501.8 211.04C501.956 219.694 521.115 214.806 528.302 210.675C536.927 205.716 547.401 195.97 541.494 191.834C540.42 191.082 539.437 190.765 538.497 190.777C554.964 169.84 546.662 138.113 521.5 146.5C520.942 146.686 520.433 146.905 519.971 147.153C523.813 126.164 529.252 92.5001 514 92.5001C497.976 92.5001 497.539 127.77 499.222 147.783C499.325 149.012 496.375 149.825 495.918 148.679C494.938 146.221 493.96 143.701 492.978 141.17C484.466 119.239 475.595 96.381 461.5 104C451.255 109.538 460.1 126.417 471.848 148.835Z" fill="white"/>
<path d="M476.67 158.098L478.45 161.68C479.409 161.204 480.136 160.363 480.47 159.346C480.805 158.329 480.717 157.221 480.228 156.269L476.67 158.098ZM471.848 148.835L468.305 150.692L471.848 148.835ZM503.528 207.496L505.063 211.19C506.824 210.459 507.824 208.585 507.451 206.715C507.079 204.844 505.437 203.497 503.53 203.496L503.528 207.496ZM501.8 211.04L505.799 210.968L505.799 210.968L501.8 211.04ZM528.302 210.675L526.309 207.207L528.302 210.675ZM541.494 191.834L543.788 188.557L541.494 191.834ZM538.497 190.777L535.353 188.304C534.401 189.515 534.228 191.165 534.91 192.546C535.591 193.928 537.006 194.795 538.546 194.776L538.497 190.777ZM521.5 146.5L522.765 150.295L522.765 150.295L521.5 146.5ZM519.971 147.153L516.036 146.432C515.76 147.943 516.373 149.479 517.614 150.384C518.855 151.29 520.505 151.404 521.859 150.679L519.971 147.153ZM514 92.5001L514 88.5001L514 92.5001ZM499.222 147.783L495.236 148.118L495.236 148.118L499.222 147.783ZM495.918 148.679L492.203 150.161L492.203 150.161L495.918 148.679ZM492.978 141.17L489.249 142.617L489.249 142.617L492.978 141.17ZM461.5 104L463.402 107.519L461.5 104ZM480.228 156.269C478.586 153.076 476.958 149.97 475.391 146.979L468.305 150.692C469.874 153.687 471.488 156.766 473.113 159.927L480.228 156.269ZM503.53 203.496C489.405 203.492 476.492 195.556 470.646 186.245C467.755 181.64 466.788 177.038 467.767 173.042C468.725 169.13 471.741 165.014 478.45 161.68L474.89 154.516C466.63 158.62 461.648 164.395 459.996 171.139C458.365 177.798 460.177 184.615 463.871 190.499C471.196 202.166 486.681 211.491 503.527 211.496L503.53 203.496ZM505.799 210.968C505.793 210.603 505.814 210.401 505.829 210.314C505.842 210.232 505.839 210.313 505.756 210.477C505.663 210.66 505.519 210.849 505.339 211.004C505.173 211.147 505.05 211.195 505.063 211.19L501.994 203.802C500.712 204.335 499.431 205.263 498.623 206.855C497.906 208.266 497.777 209.792 497.801 211.112L505.799 210.968ZM526.309 207.207C523.219 208.983 517.161 211.08 511.957 211.678C509.314 211.982 507.413 211.833 506.35 211.451C505.872 211.279 505.777 211.136 505.804 211.17C505.867 211.248 505.805 211.261 505.799 210.968L497.801 211.112C497.834 212.983 498.404 214.736 499.573 216.187C500.706 217.594 502.189 218.457 503.643 218.979C506.44 219.985 509.807 219.978 512.872 219.626C519.083 218.911 526.199 216.498 530.296 214.142L526.309 207.207ZM539.2 195.11C539.388 195.242 539.316 195.248 539.25 195.081C539.191 194.93 539.241 194.896 539.202 195.109C539.099 195.677 538.589 196.797 537.266 198.395C534.701 201.494 530.346 204.886 526.309 207.207L530.296 214.142C534.883 211.505 540.077 207.545 543.429 203.497C545.064 201.521 546.604 199.119 547.073 196.541C547.321 195.181 547.287 193.669 546.704 192.174C546.114 190.663 545.077 189.459 543.788 188.557L539.2 195.11ZM538.546 194.776C538.546 194.776 538.549 194.776 538.559 194.778C538.569 194.779 538.595 194.784 538.64 194.8C538.73 194.831 538.915 194.911 539.2 195.11L543.788 188.557C542.187 187.436 540.401 186.753 538.448 186.777L538.546 194.776ZM522.765 150.295C528.252 148.466 532.329 148.962 535.233 150.481C538.18 152.021 540.484 154.909 541.814 158.905C544.509 167.003 542.842 178.783 535.353 188.304L541.641 193.249C550.619 181.834 553.034 167.282 549.404 156.379C547.572 150.875 544.112 146.095 538.94 143.391C533.725 140.665 527.329 140.341 520.235 142.705L522.765 150.295ZM521.859 150.679C522.109 150.545 522.408 150.414 522.765 150.295L520.235 142.705C519.476 142.959 518.757 143.265 518.082 143.626L521.859 150.679ZM514 96.5001C515.12 96.5001 515.856 96.7914 516.419 97.2066C517.028 97.6559 517.674 98.4322 518.263 99.7357C519.486 102.442 520.114 106.623 520.146 111.98C520.21 122.588 517.966 135.893 516.036 146.432L523.906 147.873C525.818 137.424 528.215 123.403 528.146 111.932C528.112 106.248 527.479 100.702 525.553 96.4404C524.567 94.26 523.165 92.2423 521.168 90.7686C519.124 89.2608 516.693 88.5001 514 88.5001L514 96.5001ZM503.208 147.448C502.378 137.579 502.094 124.139 503.915 113.299C504.832 107.845 506.225 103.414 508.083 100.448C509.866 97.6037 511.778 96.5001 514 96.5001L514 88.5001C508.21 88.5001 504.058 91.8052 501.304 96.1996C498.627 100.472 497.011 106.109 496.026 111.974C494.043 123.772 494.383 137.974 495.236 148.118L503.208 147.448ZM492.203 150.161C493.009 152.182 494.792 152.911 495.881 153.122C496.978 153.335 498.026 153.201 498.835 152.98C499.65 152.757 500.598 152.343 501.42 151.637C502.211 150.957 503.383 149.53 503.208 147.448L495.236 148.118C495.112 146.65 495.954 145.786 496.207 145.568C496.491 145.325 496.692 145.273 496.726 145.263C496.753 145.256 496.984 145.187 497.403 145.269C497.814 145.348 499.056 145.749 499.634 147.198L492.203 150.161ZM489.249 142.617C490.23 145.146 491.214 147.682 492.203 150.161L499.634 147.198C498.662 144.759 497.691 142.257 496.707 139.723L489.249 142.617ZM463.402 107.519C465.874 106.183 467.72 106.292 469.437 107.116C471.436 108.075 473.644 110.211 476.013 113.735C480.753 120.786 484.933 131.497 489.249 142.617L496.707 139.723C492.511 128.911 488 117.228 482.653 109.272C479.978 105.293 476.793 101.772 472.899 99.9033C468.722 97.8989 464.174 98.0079 459.598 100.481L463.402 107.519ZM475.391 146.979C469.445 135.632 464.512 126.184 462.246 118.899C461.114 115.258 460.808 112.626 461.094 110.813C461.338 109.267 461.995 108.279 463.402 107.519L459.598 100.481C455.883 102.49 453.804 105.688 453.192 109.566C452.622 113.175 453.341 117.203 454.607 121.275C457.14 129.419 462.503 139.62 468.305 150.692L475.391 146.979Z" fill="#392660" mask="url(#path-26-outside-2_1244_862)"/>
<path d="M472 158.5C495 145 519.096 146.734 522.062 159.056C525.109 168.488 512.5 176.5 489 171L486.5 174" stroke="#392660" stroke-width="4" stroke-linecap="round" stroke-linejoin="round"/>
<path d="M510 205C513.5 205.5 523.1 204 533.5 194" stroke="#392660" stroke-width="4" stroke-linecap="round" stroke-linejoin="round"/>
<path d="M530.232 167.091C534.088 168.014 537.886 166.314 540.844 163.434C543.824 160.533 546.199 156.235 547.393 151.252C548.586 146.269 548.415 141.361 547.073 137.425C545.74 133.518 543.124 130.282 539.269 129.358C535.413 128.435 531.615 130.135 528.656 133.015C525.677 135.916 523.301 140.214 522.108 145.197C520.914 150.18 521.085 155.087 522.427 159.024C523.76 162.931 526.376 166.167 530.232 167.091Z" fill="white" stroke="#392660" stroke-width="4" stroke-linejoin="round"/>
</g>
<defs>
<filter id="filter0_f_1244_862" x="325.875" y="160.521" width="98.3679" height="98.3677" filterUnits="userSpaceOnUse" color-interpolation-filters="sRGB">
<feFlood flood-opacity="0" result="BackgroundImageFix"/>
<feBlend mode="normal" in="SourceGraphic" in2="BackgroundImageFix" result="shape"/>
<feGaussianBlur stdDeviation="4" result="effect1_foregroundBlur_1244_862"/>
</filter>
<filter id="filter1_f_1244_862" x="127.86" y="213.579" width="98.3679" height="98.3677" filterUnits="userSpaceOnUse" color-interpolation-filters="sRGB">
<feFlood flood-opacity="0" result="BackgroundImageFix"/>
<feBlend mode="normal" in="SourceGraphic" in2="BackgroundImageFix" result="shape"/>
<feGaussianBlur stdDeviation="4" result="effect1_foregroundBlur_1244_862"/>
</filter>
<radialGradient id="paint0_radial_1244_862" cx="0" cy="0" r="1" gradientUnits="userSpaceOnUse" gradientTransform="translate(365.175 172.914) rotate(68.7965) scale(79.9052 86.5046)">
<stop offset="0.208333" stop-color="#CCB3FF"/>
<stop offset="1" stop-color="#CCB3FF" stop-opacity="0"/>
</radialGradient>
<radialGradient id="paint1_radial_1244_862" cx="0" cy="0" r="1" gradientUnits="userSpaceOnUse" gradientTransform="translate(167.16 225.972) rotate(68.7965) scale(79.9052 86.5046)">
<stop offset="0.208333" stop-color="#CCB3FF"/>
<stop offset="1" stop-color="#CCB3FF" stop-opacity="0"/>
</radialGradient>
<clipPath id="clip0_1244_862">
<rect width="600" height="600" fill="white"/>
</clipPath>
</defs>
</svg>
